<?xml version="1.0" encoding="utf-8" standalone="no"?>
<!DOCTYPE svg PUBLIC "-//W3C//DTD SVG 1.1//EN"
  "http://www.w3.org/Graphics/SVG/1.1/DTD/svg11.dtd">
<!-- Created with matplotlib (http://matplotlib.org/) -->
<svg height="443pt" version="1.1" viewBox="0 0 1129 443" width="1129pt" xmlns="http://www.w3.org/2000/svg" xmlns:xlink="http://www.w3.org/1999/xlink">
 <defs>
  <style type="text/css">
*{stroke-linecap:butt;stroke-linejoin:round;}
  </style>
 </defs>
 <g id="figure_1">
  <g id="patch_1">
   <path d="
M0 443.52
L1129.68 443.52
L1129.68 0
L0 0
z
" style="fill:#ffffff;"/>
  </g>
  <g id="axes_1">
   <g id="patch_2">
    <path d="
M21.7905 397.93
L1076.64 397.93
L1076.64 27.0781
L21.7905 27.0781
z
" style="fill:#eaeaf2;"/>
   </g>
   <g id="matplotlib.axis_1">
    <g id="xtick_1">
     <g id="line2d_1">
      <path clip-path="url(#p5857def1fe)" d="
M21.7905 397.93
L21.7905 27.0781" style="fill:none;stroke:#ffffff;stroke-linecap:round;"/>
     </g>
     <g id="line2d_2">
      <defs>
       <path d="
M0 0
L0 0" id="m219da94a98" style="stroke:#262626;"/>
      </defs>
      <g>
       <use style="fill:#262626;stroke:#262626;" x="21.79046875" xlink:href="#m219da94a98" y="397.93"/>
      </g>
     </g>
     <g id="text_1">
      <!-- 350 -->
      <defs>
       <path d="
M40.5781 39.3125
Q47.6562 37.7969 51.625 33
Q55.6094 28.2188 55.6094 21.1875
Q55.6094 10.4062 48.1875 4.48438
Q40.7656 -1.42188 27.0938 -1.42188
Q22.5156 -1.42188 17.6562 -0.515625
Q12.7969 0.390625 7.625 2.20312
L7.625 11.7188
Q11.7188 9.32812 16.5938 8.10938
Q21.4844 6.89062 26.8125 6.89062
Q36.0781 6.89062 40.9375 10.5469
Q45.7969 14.2031 45.7969 21.1875
Q45.7969 27.6406 41.2812 31.2656
Q36.7656 34.9062 28.7188 34.9062
L20.2188 34.9062
L20.2188 43.0156
L29.1094 43.0156
Q36.375 43.0156 40.2344 45.9219
Q44.0938 48.8281 44.0938 54.2969
Q44.0938 59.9062 40.1094 62.9062
Q36.1406 65.9219 28.7188 65.9219
Q24.6562 65.9219 20.0156 65.0312
Q15.375 64.1562 9.8125 62.3125
L9.8125 71.0938
Q15.4375 72.6562 20.3438 73.4375
Q25.25 74.2188 29.5938 74.2188
Q40.8281 74.2188 47.3594 69.1094
Q53.9062 64.0156 53.9062 55.3281
Q53.9062 49.2656 50.4375 45.0938
Q46.9688 40.9219 40.5781 39.3125" id="BitstreamVeraSans-Roman-33"/>
       <path d="
M31.7812 66.4062
Q24.1719 66.4062 20.3281 58.9062
Q16.5 51.4219 16.5 36.375
Q16.5 21.3906 20.3281 13.8906
Q24.1719 6.39062 31.7812 6.39062
Q39.4531 6.39062 43.2812 13.8906
Q47.125 21.3906 47.125 36.375
Q47.125 51.4219 43.2812 58.9062
Q39.4531 66.4062 31.7812 66.4062
M31.7812 74.2188
Q44.0469 74.2188 50.5156 64.5156
Q56.9844 54.8281 56.9844 36.375
Q56.9844 17.9688 50.5156 8.26562
Q44.0469 -1.42188 31.7812 -1.42188
Q19.5312 -1.42188 13.0625 8.26562
Q6.59375 17.9688 6.59375 36.375
Q6.59375 54.8281 13.0625 64.5156
Q19.5312 74.2188 31.7812 74.2188" id="BitstreamVeraSans-Roman-30"/>
       <path d="
M10.7969 72.9062
L49.5156 72.9062
L49.5156 64.5938
L19.8281 64.5938
L19.8281 46.7344
Q21.9688 47.4688 24.1094 47.8281
Q26.2656 48.1875 28.4219 48.1875
Q40.625 48.1875 47.75 41.5
Q54.8906 34.8125 54.8906 23.3906
Q54.8906 11.625 47.5625 5.09375
Q40.2344 -1.42188 26.9062 -1.42188
Q22.3125 -1.42188 17.5469 -0.640625
Q12.7969 0.140625 7.71875 1.70312
L7.71875 11.625
Q12.1094 9.23438 16.7969 8.0625
Q21.4844 6.89062 26.7031 6.89062
Q35.1562 6.89062 40.0781 11.3281
Q45.0156 15.7656 45.0156 23.3906
Q45.0156 31 40.0781 35.4375
Q35.1562 39.8906 26.7031 39.8906
Q22.75 39.8906 18.8125 39.0156
Q14.8906 38.1406 10.7969 36.2812
z
" id="BitstreamVeraSans-Roman-35"/>
      </defs>
      <g style="fill:#262626;" transform="translate(12.96 412.5284375)scale(0.1 -0.1)">
       <use xlink:href="#BitstreamVeraSans-Roman-33"/>
       <use x="63.623046875" xlink:href="#BitstreamVeraSans-Roman-35"/>
       <use x="127.24609375" xlink:href="#BitstreamVeraSans-Roman-30"/>
      </g>
     </g>
    </g>
    <g id="xtick_2">
     <g id="line2d_3">
      <path clip-path="url(#p5857def1fe)" d="
M285.502 397.93
L285.502 27.0781" style="fill:none;stroke:#ffffff;stroke-linecap:round;"/>
     </g>
     <g id="line2d_4">
      <g>
       <use style="fill:#262626;stroke:#262626;" x="285.5021875" xlink:href="#m219da94a98" y="397.93"/>
      </g>
     </g>
     <g id="text_2">
      <!-- 400 -->
      <defs>
       <path d="
M37.7969 64.3125
L12.8906 25.3906
L37.7969 25.3906
z

M35.2031 72.9062
L47.6094 72.9062
L47.6094 25.3906
L58.0156 25.3906
L58.0156 17.1875
L47.6094 17.1875
L47.6094 0
L37.7969 0
L37.7969 17.1875
L4.89062 17.1875
L4.89062 26.7031
z
" id="BitstreamVeraSans-Roman-34"/>
      </defs>
      <g style="fill:#262626;" transform="translate(276.535 412.5284375)scale(0.1 -0.1)">
       <use xlink:href="#BitstreamVeraSans-Roman-34"/>
       <use x="63.623046875" xlink:href="#BitstreamVeraSans-Roman-30"/>
       <use x="127.24609375" xlink:href="#BitstreamVeraSans-Roman-30"/>
      </g>
     </g>
    </g>
    <g id="xtick_3">
     <g id="line2d_5">
      <path clip-path="url(#p5857def1fe)" d="
M549.214 397.93
L549.214 27.0781" style="fill:none;stroke:#ffffff;stroke-linecap:round;"/>
     </g>
     <g id="line2d_6">
      <g>
       <use style="fill:#262626;stroke:#262626;" x="549.21390625" xlink:href="#m219da94a98" y="397.93"/>
      </g>
     </g>
     <g id="text_3">
      <!-- 450 -->
      <g style="fill:#262626;" transform="translate(540.24671875 412.5284375)scale(0.1 -0.1)">
       <use xlink:href="#BitstreamVeraSans-Roman-34"/>
       <use x="63.623046875" xlink:href="#BitstreamVeraSans-Roman-35"/>
       <use x="127.24609375" xlink:href="#BitstreamVeraSans-Roman-30"/>
      </g>
     </g>
    </g>
    <g id="xtick_4">
     <g id="line2d_7">
      <path clip-path="url(#p5857def1fe)" d="
M812.926 397.93
L812.926 27.0781" style="fill:none;stroke:#ffffff;stroke-linecap:round;"/>
     </g>
     <g id="line2d_8">
      <g>
       <use style="fill:#262626;stroke:#262626;" x="812.925625" xlink:href="#m219da94a98" y="397.93"/>
      </g>
     </g>
     <g id="text_4">
      <!-- 500 -->
      <g style="fill:#262626;" transform="translate(804.09984375 412.5284375)scale(0.1 -0.1)">
       <use xlink:href="#BitstreamVeraSans-Roman-35"/>
       <use x="63.623046875" xlink:href="#BitstreamVeraSans-Roman-30"/>
       <use x="127.24609375" xlink:href="#BitstreamVeraSans-Roman-30"/>
      </g>
     </g>
    </g>
    <g id="xtick_5">
     <g id="line2d_9">
      <path clip-path="url(#p5857def1fe)" d="
M1076.64 397.93
L1076.64 27.0781" style="fill:none;stroke:#ffffff;stroke-linecap:round;"/>
     </g>
     <g id="line2d_10">
      <g>
       <use style="fill:#262626;stroke:#262626;" x="1076.63734375" xlink:href="#m219da94a98" y="397.93"/>
      </g>
     </g>
     <g id="text_5">
      <!-- 550 -->
      <g style="fill:#262626;" transform="translate(1067.8115625 412.5284375)scale(0.1 -0.1)">
       <use xlink:href="#BitstreamVeraSans-Roman-35"/>
       <use x="63.623046875" xlink:href="#BitstreamVeraSans-Roman-35"/>
       <use x="127.24609375" xlink:href="#BitstreamVeraSans-Roman-30"/>
      </g>
     </g>
    </g>
    <g id="text_6">
     <!-- BIRTH_tallanacer -->
     <defs>
      <path d="
M50.9844 -16.6094
L50.9844 -23.5781
L-0.984375 -23.5781
L-0.984375 -16.6094
z
" id="BitstreamVeraSans-Roman-5f"/>
      <path d="
M54.8906 33.0156
L54.8906 0
L45.9062 0
L45.9062 32.7188
Q45.9062 40.4844 42.875 44.3281
Q39.8438 48.1875 33.7969 48.1875
Q26.5156 48.1875 22.3125 43.5469
Q18.1094 38.9219 18.1094 30.9062
L18.1094 0
L9.07812 0
L9.07812 54.6875
L18.1094 54.6875
L18.1094 46.1875
Q21.3438 51.125 25.7031 53.5625
Q30.0781 56 35.7969 56
Q45.2188 56 50.0469 50.1719
Q54.8906 44.3438 54.8906 33.0156" id="BitstreamVeraSans-Roman-6e"/>
      <path d="
M41.1094 46.2969
Q39.5938 47.1719 37.8125 47.5781
Q36.0312 48 33.8906 48
Q26.2656 48 22.1875 43.0469
Q18.1094 38.0938 18.1094 28.8125
L18.1094 0
L9.07812 0
L9.07812 54.6875
L18.1094 54.6875
L18.1094 46.1875
Q20.9531 51.1719 25.4844 53.5781
Q30.0312 56 36.5312 56
Q37.4531 56 38.5781 55.875
Q39.7031 55.7656 41.0625 55.5156
z
" id="BitstreamVeraSans-Roman-72"/>
      <path d="
M9.42188 75.9844
L18.4062 75.9844
L18.4062 0
L9.42188 0
z
" id="BitstreamVeraSans-Roman-6c"/>
      <path d="
M44.3906 34.1875
Q47.5625 33.1094 50.5625 29.5938
Q53.5625 26.0781 56.5938 19.9219
L66.6094 0
L56 0
L46.6875 18.7031
Q43.0625 26.0312 39.6719 28.4219
Q36.2812 30.8125 30.4219 30.8125
L19.6719 30.8125
L19.6719 0
L9.8125 0
L9.8125 72.9062
L32.0781 72.9062
Q44.5781 72.9062 50.7344 67.6719
Q56.8906 62.4531 56.8906 51.9062
Q56.8906 45.0156 53.6875 40.4688
Q50.4844 35.9375 44.3906 34.1875
M19.6719 64.7969
L19.6719 38.9219
L32.0781 38.9219
Q39.2031 38.9219 42.8438 42.2188
Q46.4844 45.5156 46.4844 51.9062
Q46.4844 58.2969 42.8438 61.5469
Q39.2031 64.7969 32.0781 64.7969
z
" id="BitstreamVeraSans-Roman-52"/>
      <path d="
M-0.296875 72.9062
L61.375 72.9062
L61.375 64.5938
L35.5 64.5938
L35.5 0
L25.5938 0
L25.5938 64.5938
L-0.296875 64.5938
z
" id="BitstreamVeraSans-Roman-54"/>
      <path d="
M19.6719 34.8125
L19.6719 8.10938
L35.5 8.10938
Q43.4531 8.10938 47.2812 11.4062
Q51.125 14.7031 51.125 21.4844
Q51.125 28.3281 47.2812 31.5625
Q43.4531 34.8125 35.5 34.8125
z

M19.6719 64.7969
L19.6719 42.8281
L34.2812 42.8281
Q41.5 42.8281 45.0312 45.5312
Q48.5781 48.25 48.5781 53.8125
Q48.5781 59.3281 45.0312 62.0625
Q41.5 64.7969 34.2812 64.7969
z

M9.8125 72.9062
L35.0156 72.9062
Q46.2969 72.9062 52.3906 68.2188
Q58.5 63.5312 58.5 54.8906
Q58.5 48.1875 55.375 44.2344
Q52.25 40.2812 46.1875 39.3125
Q53.4688 37.75 57.5 32.7812
Q61.5312 27.8281 61.5312 20.4062
Q61.5312 10.6406 54.8906 5.3125
Q48.25 0 35.9844 0
L9.8125 0
z
" id="BitstreamVeraSans-Roman-42"/>
      <path d="
M48.7812 52.5938
L48.7812 44.1875
Q44.9688 46.2969 41.1406 47.3438
Q37.3125 48.3906 33.4062 48.3906
Q24.6562 48.3906 19.8125 42.8438
Q14.9844 37.3125 14.9844 27.2969
Q14.9844 17.2812 19.8125 11.7344
Q24.6562 6.20312 33.4062 6.20312
Q37.3125 6.20312 41.1406 7.25
Q44.9688 8.29688 48.7812 10.4062
L48.7812 2.09375
Q45.0156 0.34375 40.9844 -0.53125
Q36.9688 -1.42188 32.4219 -1.42188
Q20.0625 -1.42188 12.7812 6.34375
Q5.51562 14.1094 5.51562 27.2969
Q5.51562 40.6719 12.8594 48.3281
Q20.2188 56 33.0156 56
Q37.1562 56 41.1094 55.1406
Q45.0625 54.2969 48.7812 52.5938" id="BitstreamVeraSans-Roman-63"/>
      <path d="
M56.2031 29.5938
L56.2031 25.2031
L14.8906 25.2031
Q15.4844 15.9219 20.4844 11.0625
Q25.4844 6.20312 34.4219 6.20312
Q39.5938 6.20312 44.4531 7.46875
Q49.3125 8.73438 54.1094 11.2812
L54.1094 2.78125
Q49.2656 0.734375 44.1875 -0.34375
Q39.1094 -1.42188 33.8906 -1.42188
Q20.7969 -1.42188 13.1562 6.1875
Q5.51562 13.8125 5.51562 26.8125
Q5.51562 40.2344 12.7656 48.1094
Q20.0156 56 32.3281 56
Q43.3594 56 49.7812 48.8906
Q56.2031 41.7969 56.2031 29.5938
M47.2188 32.2344
Q47.125 39.5938 43.0938 43.9844
Q39.0625 48.3906 32.4219 48.3906
Q24.9062 48.3906 20.3906 44.1406
Q15.875 39.8906 15.1875 32.1719
z
" id="BitstreamVeraSans-Roman-65"/>
      <path d="
M18.3125 70.2188
L18.3125 54.6875
L36.8125 54.6875
L36.8125 47.7031
L18.3125 47.7031
L18.3125 18.0156
Q18.3125 11.3281 20.1406 9.42188
Q21.9688 7.51562 27.5938 7.51562
L36.8125 7.51562
L36.8125 0
L27.5938 0
Q17.1875 0 13.2344 3.875
Q9.28125 7.76562 9.28125 18.0156
L9.28125 47.7031
L2.6875 47.7031
L2.6875 54.6875
L9.28125 54.6875
L9.28125 70.2188
z
" id="BitstreamVeraSans-Roman-74"/>
      <path d="
M34.2812 27.4844
Q23.3906 27.4844 19.1875 25
Q14.9844 22.5156 14.9844 16.5
Q14.9844 11.7188 18.1406 8.90625
Q21.2969 6.10938 26.7031 6.10938
Q34.1875 6.10938 38.7031 11.4062
Q43.2188 16.7031 43.2188 25.4844
L43.2188 27.4844
z

M52.2031 31.2031
L52.2031 0
L43.2188 0
L43.2188 8.29688
Q40.1406 3.32812 35.5469 0.953125
Q30.9531 -1.42188 24.3125 -1.42188
Q15.9219 -1.42188 10.9531 3.29688
Q6 8.01562 6 15.9219
Q6 25.1406 12.1719 29.8281
Q18.3594 34.5156 30.6094 34.5156
L43.2188 34.5156
L43.2188 35.4062
Q43.2188 41.6094 39.1406 45
Q35.0625 48.3906 27.6875 48.3906
Q23 48.3906 18.5469 47.2656
Q14.1094 46.1406 10.0156 43.8906
L10.0156 52.2031
Q14.9375 54.1094 19.5781 55.0469
Q24.2188 56 28.6094 56
Q40.4844 56 46.3438 49.8438
Q52.2031 43.7031 52.2031 31.2031" id="BitstreamVeraSans-Roman-61"/>
      <path d="
M9.8125 72.9062
L19.6719 72.9062
L19.6719 0
L9.8125 0
z
" id="BitstreamVeraSans-Roman-49"/>
      <path d="
M9.8125 72.9062
L19.6719 72.9062
L19.6719 43.0156
L55.5156 43.0156
L55.5156 72.9062
L65.375 72.9062
L65.375 0
L55.5156 0
L55.5156 34.7188
L19.6719 34.7188
L19.6719 0
L9.8125 0
z
" id="BitstreamVeraSans-Roman-48"/>
     </defs>
     <g style="fill:#262626;" transform="translate(503.210703125 427.96640625)scale(0.11 -0.11)">
      <use xlink:href="#BitstreamVeraSans-Roman-42"/>
      <use x="68.603515625" xlink:href="#BitstreamVeraSans-Roman-49"/>
      <use x="98.095703125" xlink:href="#BitstreamVeraSans-Roman-52"/>
      <use x="160.328125" xlink:href="#BitstreamVeraSans-Roman-54"/>
      <use x="221.412109375" xlink:href="#BitstreamVeraSans-Roman-48"/>
      <use x="296.607421875" xlink:href="#BitstreamVeraSans-Roman-5f"/>
      <use x="346.607421875" xlink:href="#BitstreamVeraSans-Roman-74"/>
      <use x="385.81640625" xlink:href="#BitstreamVeraSans-Roman-61"/>
      <use x="447.095703125" xlink:href="#BitstreamVeraSans-Roman-6c"/>
      <use x="474.87890625" xlink:href="#BitstreamVeraSans-Roman-6c"/>
      <use x="502.662109375" xlink:href="#BitstreamVeraSans-Roman-61"/>
      <use x="563.94140625" xlink:href="#BitstreamVeraSans-Roman-6e"/>
      <use x="627.3203125" xlink:href="#BitstreamVeraSans-Roman-61"/>
      <use x="688.599609375" xlink:href="#BitstreamVeraSans-Roman-63"/>
      <use x="743.580078125" xlink:href="#BitstreamVeraSans-Roman-65"/>
      <use x="805.103515625" xlink:href="#BitstreamVeraSans-Roman-72"/>
     </g>
    </g>
   </g>
   <g id="matplotlib.axis_2">
    <g id="ytick_1">
     <g id="line2d_11">
      <path clip-path="url(#p5857def1fe)" d="
M21.7905 397.93
L1076.64 397.93" style="fill:none;stroke:#ffffff;stroke-linecap:round;"/>
     </g>
     <g id="line2d_12">
      <g>
       <use style="fill:#262626;stroke:#262626;" x="1076.63734375" xlink:href="#m219da94a98" y="397.93"/>
      </g>
     </g>
     <g id="text_7">
      <!-- 20 -->
      <defs>
       <path d="
M19.1875 8.29688
L53.6094 8.29688
L53.6094 0
L7.32812 0
L7.32812 8.29688
Q12.9375 14.1094 22.625 23.8906
Q32.3281 33.6875 34.8125 36.5312
Q39.5469 41.8438 41.4219 45.5312
Q43.3125 49.2188 43.3125 52.7812
Q43.3125 58.5938 39.2344 62.25
Q35.1562 65.9219 28.6094 65.9219
Q23.9688 65.9219 18.8125 64.3125
Q13.6719 62.7031 7.8125 59.4219
L7.8125 69.3906
Q13.7656 71.7812 18.9375 73
Q24.125 74.2188 28.4219 74.2188
Q39.75 74.2188 46.4844 68.5469
Q53.2188 62.8906 53.2188 53.4219
Q53.2188 48.9219 51.5312 44.8906
Q49.8594 40.875 45.4062 35.4062
Q44.1875 33.9844 37.6406 27.2188
Q31.1094 20.4531 19.1875 8.29688" id="BitstreamVeraSans-Roman-32"/>
      </defs>
      <g style="fill:#262626;" transform="translate(1083.63734375 400.689375)scale(0.1 -0.1)">
       <use xlink:href="#BitstreamVeraSans-Roman-32"/>
       <use x="63.623046875" xlink:href="#BitstreamVeraSans-Roman-30"/>
      </g>
     </g>
    </g>
    <g id="ytick_2">
     <g id="line2d_13">
      <path clip-path="url(#p5857def1fe)" d="
M21.7905 336.121
L1076.64 336.121" style="fill:none;stroke:#ffffff;stroke-linecap:round;"/>
     </g>
     <g id="line2d_14">
      <g>
       <use style="fill:#262626;stroke:#262626;" x="1076.63734375" xlink:href="#m219da94a98" y="336.121354167"/>
      </g>
     </g>
     <g id="text_8">
      <!-- 40 -->
      <g style="fill:#262626;" transform="translate(1083.63734375 338.880729167)scale(0.1 -0.1)">
       <use xlink:href="#BitstreamVeraSans-Roman-34"/>
       <use x="63.623046875" xlink:href="#BitstreamVeraSans-Roman-30"/>
      </g>
     </g>
    </g>
    <g id="ytick_3">
     <g id="line2d_15">
      <path clip-path="url(#p5857def1fe)" d="
M21.7905 274.313
L1076.64 274.313" style="fill:none;stroke:#ffffff;stroke-linecap:round;"/>
     </g>
     <g id="line2d_16">
      <g>
       <use style="fill:#262626;stroke:#262626;" x="1076.63734375" xlink:href="#m219da94a98" y="274.312708333"/>
      </g>
     </g>
     <g id="text_9">
      <!-- 60 -->
      <defs>
       <path d="
M33.0156 40.375
Q26.375 40.375 22.4844 35.8281
Q18.6094 31.2969 18.6094 23.3906
Q18.6094 15.5312 22.4844 10.9531
Q26.375 6.39062 33.0156 6.39062
Q39.6562 6.39062 43.5312 10.9531
Q47.4062 15.5312 47.4062 23.3906
Q47.4062 31.2969 43.5312 35.8281
Q39.6562 40.375 33.0156 40.375
M52.5938 71.2969
L52.5938 62.3125
Q48.875 64.0625 45.0938 64.9844
Q41.3125 65.9219 37.5938 65.9219
Q27.8281 65.9219 22.6719 59.3281
Q17.5312 52.7344 16.7969 39.4062
Q19.6719 43.6562 24.0156 45.9219
Q28.375 48.1875 33.5938 48.1875
Q44.5781 48.1875 50.9531 41.5156
Q57.3281 34.8594 57.3281 23.3906
Q57.3281 12.1562 50.6875 5.35938
Q44.0469 -1.42188 33.0156 -1.42188
Q20.3594 -1.42188 13.6719 8.26562
Q6.98438 17.9688 6.98438 36.375
Q6.98438 53.6562 15.1875 63.9375
Q23.3906 74.2188 37.2031 74.2188
Q40.9219 74.2188 44.7031 73.4844
Q48.4844 72.75 52.5938 71.2969" id="BitstreamVeraSans-Roman-36"/>
      </defs>
      <g style="fill:#262626;" transform="translate(1083.63734375 277.072083333)scale(0.1 -0.1)">
       <use xlink:href="#BitstreamVeraSans-Roman-36"/>
       <use x="63.623046875" xlink:href="#BitstreamVeraSans-Roman-30"/>
      </g>
     </g>
    </g>
    <g id="ytick_4">
     <g id="line2d_17">
      <path clip-path="url(#p5857def1fe)" d="
M21.7905 212.504
L1076.64 212.504" style="fill:none;stroke:#ffffff;stroke-linecap:round;"/>
     </g>
     <g id="line2d_18">
      <g>
       <use style="fill:#262626;stroke:#262626;" x="1076.63734375" xlink:href="#m219da94a98" y="212.5040625"/>
      </g>
     </g>
     <g id="text_10">
      <!-- 80 -->
      <defs>
       <path d="
M31.7812 34.625
Q24.75 34.625 20.7188 30.8594
Q16.7031 27.0938 16.7031 20.5156
Q16.7031 13.9219 20.7188 10.1562
Q24.75 6.39062 31.7812 6.39062
Q38.8125 6.39062 42.8594 10.1719
Q46.9219 13.9688 46.9219 20.5156
Q46.9219 27.0938 42.8906 30.8594
Q38.875 34.625 31.7812 34.625
M21.9219 38.8125
Q15.5781 40.375 12.0312 44.7188
Q8.5 49.0781 8.5 55.3281
Q8.5 64.0625 14.7188 69.1406
Q20.9531 74.2188 31.7812 74.2188
Q42.6719 74.2188 48.875 69.1406
Q55.0781 64.0625 55.0781 55.3281
Q55.0781 49.0781 51.5312 44.7188
Q48 40.375 41.7031 38.8125
Q48.8281 37.1562 52.7969 32.3125
Q56.7812 27.4844 56.7812 20.5156
Q56.7812 9.90625 50.3125 4.23438
Q43.8438 -1.42188 31.7812 -1.42188
Q19.7344 -1.42188 13.25 4.23438
Q6.78125 9.90625 6.78125 20.5156
Q6.78125 27.4844 10.7812 32.3125
Q14.7969 37.1562 21.9219 38.8125
M18.3125 54.3906
Q18.3125 48.7344 21.8438 45.5625
Q25.3906 42.3906 31.7812 42.3906
Q38.1406 42.3906 41.7188 45.5625
Q45.3125 48.7344 45.3125 54.3906
Q45.3125 60.0625 41.7188 63.2344
Q38.1406 66.4062 31.7812 66.4062
Q25.3906 66.4062 21.8438 63.2344
Q18.3125 60.0625 18.3125 54.3906" id="BitstreamVeraSans-Roman-38"/>
      </defs>
      <g style="fill:#262626;" transform="translate(1083.63734375 215.2634375)scale(0.1 -0.1)">
       <use xlink:href="#BitstreamVeraSans-Roman-38"/>
       <use x="63.623046875" xlink:href="#BitstreamVeraSans-Roman-30"/>
      </g>
     </g>
    </g>
    <g id="ytick_5">
     <g id="line2d_19">
      <path clip-path="url(#p5857def1fe)" d="
M21.7905 150.695
L1076.64 150.695" style="fill:none;stroke:#ffffff;stroke-linecap:round;"/>
     </g>
     <g id="line2d_20">
      <g>
       <use style="fill:#262626;stroke:#262626;" x="1076.63734375" xlink:href="#m219da94a98" y="150.695416667"/>
      </g>
     </g>
     <g id="text_11">
      <!-- 100 -->
      <defs>
       <path d="
M12.4062 8.29688
L28.5156 8.29688
L28.5156 63.9219
L10.9844 60.4062
L10.9844 69.3906
L28.4219 72.9062
L38.2812 72.9062
L38.2812 8.29688
L54.3906 8.29688
L54.3906 0
L12.4062 0
z
" id="BitstreamVeraSans-Roman-31"/>
      </defs>
      <g style="fill:#262626;" transform="translate(1083.63734375 153.454791667)scale(0.1 -0.1)">
       <use xlink:href="#BitstreamVeraSans-Roman-31"/>
       <use x="63.623046875" xlink:href="#BitstreamVeraSans-Roman-30"/>
       <use x="127.24609375" xlink:href="#BitstreamVeraSans-Roman-30"/>
      </g>
     </g>
    </g>
    <g id="ytick_6">
     <g id="line2d_21">
      <path clip-path="url(#p5857def1fe)" d="
M21.7905 88.8868
L1076.64 88.8868" style="fill:none;stroke:#ffffff;stroke-linecap:round;"/>
     </g>
     <g id="line2d_22">
      <g>
       <use style="fill:#262626;stroke:#262626;" x="1076.63734375" xlink:href="#m219da94a98" y="88.8867708333"/>
      </g>
     </g>
     <g id="text_12">
      <!-- 120 -->
      <g style="fill:#262626;" transform="translate(1083.63734375 91.6461458333)scale(0.1 -0.1)">
       <use xlink:href="#BitstreamVeraSans-Roman-31"/>
       <use x="63.623046875" xlink:href="#BitstreamVeraSans-Roman-32"/>
       <use x="127.24609375" xlink:href="#BitstreamVeraSans-Roman-30"/>
      </g>
     </g>
    </g>
    <g id="ytick_7">
     <g id="line2d_23">
      <path clip-path="url(#p5857def1fe)" d="
M21.7905 27.0781
L1076.64 27.0781" style="fill:none;stroke:#ffffff;stroke-linecap:round;"/>
     </g>
     <g id="line2d_24">
      <g>
       <use style="fill:#262626;stroke:#262626;" x="1076.63734375" xlink:href="#m219da94a98" y="27.078125"/>
      </g>
     </g>
     <g id="text_13">
      <!-- 140 -->
      <g style="fill:#262626;" transform="translate(1083.63734375 29.8375)scale(0.1 -0.1)">
       <use xlink:href="#BitstreamVeraSans-Roman-31"/>
       <use x="63.623046875" xlink:href="#BitstreamVeraSans-Roman-34"/>
       <use x="127.24609375" xlink:href="#BitstreamVeraSans-Roman-30"/>
      </g>
     </g>
    </g>
    <g id="text_14">
     <!-- WISC_FSIQ -->
     <defs>
      <path d="
M9.8125 72.9062
L51.7031 72.9062
L51.7031 64.5938
L19.6719 64.5938
L19.6719 43.1094
L48.5781 43.1094
L48.5781 34.8125
L19.6719 34.8125
L19.6719 0
L9.8125 0
z
" id="BitstreamVeraSans-Roman-46"/>
      <path d="
M39.4062 66.2188
Q28.6562 66.2188 22.3281 58.2031
Q16.0156 50.2031 16.0156 36.375
Q16.0156 22.6094 22.3281 14.5938
Q28.6562 6.59375 39.4062 6.59375
Q50.1406 6.59375 56.4219 14.5938
Q62.7031 22.6094 62.7031 36.375
Q62.7031 50.2031 56.4219 58.2031
Q50.1406 66.2188 39.4062 66.2188
M53.2188 1.3125
L66.2188 -12.8906
L54.2969 -12.8906
L43.5 -1.21875
Q41.8906 -1.3125 41.0312 -1.35938
Q40.1875 -1.42188 39.4062 -1.42188
Q24.0312 -1.42188 14.8125 8.85938
Q5.60938 19.1406 5.60938 36.375
Q5.60938 53.6562 14.8125 63.9375
Q24.0312 74.2188 39.4062 74.2188
Q54.7344 74.2188 63.9062 63.9375
Q73.0938 53.6562 73.0938 36.375
Q73.0938 23.6875 67.9844 14.6406
Q62.8906 5.60938 53.2188 1.3125" id="BitstreamVeraSans-Roman-51"/>
      <path d="
M53.5156 70.5156
L53.5156 60.8906
Q47.9062 63.5781 42.9219 64.8906
Q37.9375 66.2188 33.2969 66.2188
Q25.25 66.2188 20.875 63.0938
Q16.5 59.9688 16.5 54.2031
Q16.5 49.3594 19.4062 46.8906
Q22.3125 44.4375 30.4219 42.9219
L36.375 41.7031
Q47.4062 39.5938 52.6562 34.2969
Q57.9062 29 57.9062 20.125
Q57.9062 9.51562 50.7969 4.04688
Q43.7031 -1.42188 29.9844 -1.42188
Q24.8125 -1.42188 18.9688 -0.25
Q13.1406 0.921875 6.89062 3.21875
L6.89062 13.375
Q12.8906 10.0156 18.6562 8.29688
Q24.4219 6.59375 29.9844 6.59375
Q38.4219 6.59375 43.0156 9.90625
Q47.6094 13.2344 47.6094 19.3906
Q47.6094 24.75 44.3125 27.7812
Q41.0156 30.8125 33.5 32.3281
L27.4844 33.5
Q16.4531 35.6875 11.5156 40.375
Q6.59375 45.0625 6.59375 53.4219
Q6.59375 63.0938 13.4062 68.6562
Q20.2188 74.2188 32.1719 74.2188
Q37.3125 74.2188 42.625 73.2812
Q47.9531 72.3594 53.5156 70.5156" id="BitstreamVeraSans-Roman-53"/>
      <path d="
M64.4062 67.2812
L64.4062 56.8906
Q59.4219 61.5312 53.7812 63.8125
Q48.1406 66.1094 41.7969 66.1094
Q29.2969 66.1094 22.6562 58.4688
Q16.0156 50.8281 16.0156 36.375
Q16.0156 21.9688 22.6562 14.3281
Q29.2969 6.6875 41.7969 6.6875
Q48.1406 6.6875 53.7812 8.98438
Q59.4219 11.2812 64.4062 15.9219
L64.4062 5.60938
Q59.2344 2.09375 53.4375 0.328125
Q47.6562 -1.42188 41.2188 -1.42188
Q24.6562 -1.42188 15.125 8.70312
Q5.60938 18.8438 5.60938 36.375
Q5.60938 53.9531 15.125 64.0781
Q24.6562 74.2188 41.2188 74.2188
Q47.75 74.2188 53.5312 72.4844
Q59.3281 70.75 64.4062 67.2812" id="BitstreamVeraSans-Roman-43"/>
      <path d="
M3.32812 72.9062
L13.2812 72.9062
L28.6094 11.2812
L43.8906 72.9062
L54.9844 72.9062
L70.3125 11.2812
L85.5938 72.9062
L95.6094 72.9062
L77.2969 0
L64.8906 0
L49.5156 63.2812
L33.9844 0
L21.5781 0
z
" id="BitstreamVeraSans-Roman-57"/>
     </defs>
     <g style="fill:#262626;" transform="translate(1114.12640625 241.665234375)rotate(-90.0)scale(0.11 -0.11)">
      <use xlink:href="#BitstreamVeraSans-Roman-57"/>
      <use x="98.876953125" xlink:href="#BitstreamVeraSans-Roman-49"/>
      <use x="128.369140625" xlink:href="#BitstreamVeraSans-Roman-53"/>
      <use x="191.845703125" xlink:href="#BitstreamVeraSans-Roman-43"/>
      <use x="261.669921875" xlink:href="#BitstreamVeraSans-Roman-5f"/>
      <use x="311.669921875" xlink:href="#BitstreamVeraSans-Roman-46"/>
      <use x="367.439453125" xlink:href="#BitstreamVeraSans-Roman-53"/>
      <use x="430.916015625" xlink:href="#BitstreamVeraSans-Roman-49"/>
      <use x="460.408203125" xlink:href="#BitstreamVeraSans-Roman-51"/>
     </g>
    </g>
   </g>
   <g id="PathCollection_1">
    <defs>
     <path d="
M0 2.23607
C0.593012 2.23607 1.16182 2.00046 1.58114 1.58114
C2.00046 1.16182 2.23607 0.593012 2.23607 0
C2.23607 -0.593012 2.00046 -1.16182 1.58114 -1.58114
C1.16182 -2.00046 0.593012 -2.23607 0 -2.23607
C-0.593012 -2.23607 -1.16182 -2.00046 -1.58114 -1.58114
C-2.00046 -1.16182 -2.23607 -0.593012 -2.23607 0
C-2.23607 0.593012 -2.00046 1.16182 -1.58114 1.58114
C-1.16182 2.00046 -0.593012 2.23607 0 2.23607
z
" id="C0_0_919e3f95db"/>
    </defs>
    <g clip-path="url(#p5857def1fe)">
     <use style="fill:#1b9e77;fill-opacity:0.8;stroke:#1b9e77;stroke-opacity:0.8;stroke-width:0.3;" x="74.5328125" xlink:href="#C0_0_919e3f95db" y="187.780604167"/>
    </g>
    <g clip-path="url(#p5857def1fe)">
     <use style="fill:#1b9e77;fill-opacity:0.8;stroke:#1b9e77;stroke-opacity:0.8;stroke-width:0.3;" x="127.27515625" xlink:href="#C0_0_919e3f95db" y="243.408385417"/>
    </g>
    <g clip-path="url(#p5857def1fe)">
     <use style="fill:#1b9e77;fill-opacity:0.8;stroke:#1b9e77;stroke-opacity:0.8;stroke-width:0.3;" x="180.0175" xlink:href="#C0_0_919e3f95db" y="255.770114583"/>
    </g>
    <g clip-path="url(#p5857def1fe)">
     <use style="fill:#1b9e77;fill-opacity:0.8;stroke:#1b9e77;stroke-opacity:0.8;stroke-width:0.3;" x="338.24453125" xlink:href="#C0_0_919e3f95db" y="218.684927083"/>
    </g>
    <g clip-path="url(#p5857def1fe)">
     <use style="fill:#1b9e77;fill-opacity:0.8;stroke:#1b9e77;stroke-opacity:0.8;stroke-width:0.3;" x="443.72921875" xlink:href="#C0_0_919e3f95db" y="141.424119792"/>
    </g>
    <g clip-path="url(#p5857def1fe)">
     <use style="fill:#1b9e77;fill-opacity:0.8;stroke:#1b9e77;stroke-opacity:0.8;stroke-width:0.3;" x="127.27515625" xlink:href="#C0_0_919e3f95db" y="224.865791667"/>
    </g>
    <g clip-path="url(#p5857def1fe)">
     <use style="fill:#1b9e77;fill-opacity:0.8;stroke:#1b9e77;stroke-opacity:0.8;stroke-width:0.3;" x="760.18328125" xlink:href="#C0_0_919e3f95db" y="122.881526042"/>
    </g>
    <g clip-path="url(#p5857def1fe)">
     <use style="fill:#1b9e77;fill-opacity:0.8;stroke:#1b9e77;stroke-opacity:0.8;stroke-width:0.3;" x="707.4409375" xlink:href="#C0_0_919e3f95db" y="197.051901042"/>
    </g>
    <g clip-path="url(#p5857def1fe)">
     <use style="fill:#1b9e77;fill-opacity:0.8;stroke:#1b9e77;stroke-opacity:0.8;stroke-width:0.3;" x="760.18328125" xlink:href="#C0_0_919e3f95db" y="129.062390625"/>
    </g>
    <g clip-path="url(#p5857def1fe)">
     <use style="fill:#1b9e77;fill-opacity:0.8;stroke:#1b9e77;stroke-opacity:0.8;stroke-width:0.3;" x="971.15265625" xlink:href="#C0_0_919e3f95db" y="135.243255208"/>
    </g>
   </g>
   <g id="PolyCollection_1">
    <defs>
     <path d="
M21.7905 -241.59
L21.7905 -174.318
L32.4455 -176.175
L43.1005 -178.038
L53.7555 -180.192
L64.4105 -182.099
L75.0656 -183.791
L85.7206 -185.468
L96.3756 -187.3
L107.031 -188.976
L117.686 -190.564
L128.341 -192.707
L138.996 -194.283
L149.651 -196.108
L160.306 -197.956
L170.961 -199.686
L181.616 -201.287
L192.271 -202.887
L202.926 -204.166
L213.581 -205.555
L224.236 -207.046
L234.891 -208.485
L245.546 -210.032
L256.201 -211.399
L266.856 -212.769
L277.511 -214.33
L288.166 -215.917
L298.821 -217.523
L309.476 -219.084
L320.131 -220.671
L330.786 -222.126
L341.441 -223.574
L352.096 -225.025
L362.751 -226.488
L373.406 -227.945
L384.061 -229.403
L394.716 -230.868
L405.371 -232.64
L416.026 -234.166
L426.681 -235.244
L437.336 -236.702
L447.991 -238.157
L458.646 -239.619
L469.301 -241.08
L479.956 -242.477
L490.611 -243.573
L501.266 -244.539
L511.921 -246.038
L522.576 -247.248
L533.231 -248.558
L543.886 -249.491
L554.541 -250.38
L565.196 -251.265
L575.851 -252.306
L586.506 -253.238
L597.161 -254.391
L607.817 -255.437
L618.472 -256.558
L629.127 -258.14
L639.782 -259.146
L650.437 -260.04
L661.092 -260.723
L671.747 -261.714
L682.402 -262.753
L693.057 -263.674
L703.712 -264.384
L714.367 -265.393
L725.022 -266.588
L735.677 -267.654
L746.332 -268.587
L756.987 -269.354
L767.642 -270.129
L778.297 -270.897
L788.952 -271.651
L799.607 -272.422
L810.262 -273.188
L820.917 -273.951
L831.572 -274.715
L842.227 -275.476
L852.882 -276.178
L863.537 -276.999
L874.192 -277.71
L884.847 -278.312
L895.502 -278.914
L906.157 -279.516
L916.812 -280.12
L927.467 -280.728
L938.122 -281.336
L948.777 -281.944
L959.432 -282.632
L970.087 -283.459
L980.742 -284.317
L991.397 -285.002
L1002.05 -285.756
L1012.71 -286.533
L1023.36 -287.322
L1034.02 -288.179
L1044.67 -289.004
L1055.33 -289.673
L1065.98 -290.45
L1076.64 -291.228
L1076.64 -384.027
L1076.64 -384.027
L1065.98 -382.051
L1055.33 -380.076
L1044.67 -378.1
L1034.02 -376.125
L1023.36 -374.209
L1012.71 -372.322
L1002.05 -370.298
L991.397 -368.332
L980.742 -366.428
L970.087 -364.524
L959.432 -362.62
L948.777 -360.716
L938.122 -358.813
L927.467 -356.909
L916.812 -355.005
L906.157 -353.108
L895.502 -351.235
L884.847 -349.362
L874.192 -347.488
L863.537 -345.615
L852.882 -343.742
L842.227 -341.866
L831.572 -339.99
L820.917 -338.214
L810.262 -336.247
L799.607 -334.372
L788.952 -332.497
L778.297 -330.791
L767.642 -328.797
L756.987 -326.773
L746.332 -324.738
L735.677 -322.709
L725.022 -320.718
L714.367 -318.812
L703.712 -316.906
L693.057 -314.95
L682.402 -312.99
L671.747 -311.278
L661.092 -309.592
L650.437 -308.02
L639.782 -306.237
L629.127 -304.405
L618.472 -302.756
L607.817 -301.233
L597.161 -299.185
L586.506 -297.633
L575.851 -296.232
L565.196 -294.821
L554.541 -292.792
L543.886 -291.297
L533.231 -289.95
L522.576 -288.802
L511.921 -286.932
L501.266 -285.955
L490.611 -284.549
L479.956 -282.98
L469.301 -281.51
L458.646 -280.134
L447.991 -279.047
L437.336 -277.883
L426.681 -276.541
L416.026 -275.467
L405.371 -274.435
L394.716 -273.233
L384.061 -272.217
L373.406 -271.253
L362.751 -270.341
L352.096 -269.316
L341.441 -268.22
L330.786 -267.167
L320.131 -266.247
L309.476 -265.225
L298.821 -264.025
L288.166 -263.15
L277.511 -262.16
L266.856 -261.241
L256.201 -260.228
L245.546 -259.371
L234.891 -258.476
L224.236 -257.545
L213.581 -256.54
L202.926 -255.712
L192.271 -254.792
L181.616 -253.879
L170.961 -252.959
L160.306 -251.997
L149.651 -251.035
L138.996 -250.187
L128.341 -249.45
L117.686 -248.576
L107.031 -247.696
L96.3756 -246.81
L85.7206 -245.981
L75.0656 -245.304
L64.4105 -244.626
L53.7555 -243.774
L43.1005 -243.041
L32.4455 -242.318
L21.7905 -241.59
z
" id="C1_0_6a02aae14f"/>
    </defs>
    <g clip-path="url(#p5857def1fe)">
     <use style="fill:#1b9e77;fill-opacity:0.15;stroke:#1b9e77;stroke-opacity:0.15;stroke-width:0.3;" x="0.0" xlink:href="#C1_0_6a02aae14f" y="443.52"/>
    </g>
   </g>
   <g id="PathCollection_2">
    <defs>
     <path d="
M0 2.23607
C0.593012 2.23607 1.16182 2.00046 1.58114 1.58114
C2.00046 1.16182 2.23607 0.593012 2.23607 0
C2.23607 -0.593012 2.00046 -1.16182 1.58114 -1.58114
C1.16182 -2.00046 0.593012 -2.23607 0 -2.23607
C-0.593012 -2.23607 -1.16182 -2.00046 -1.58114 -1.58114
C-2.00046 -1.16182 -2.23607 -0.593012 -2.23607 0
C-2.23607 0.593012 -2.00046 1.16182 -1.58114 1.58114
C-1.16182 2.00046 -0.593012 2.23607 0 2.23607
z
" id="C2_0_919e3f95db"/>
    </defs>
    <g clip-path="url(#p5857def1fe)">
     <use style="fill:#d76003;fill-opacity:0.8;stroke:#d76003;stroke-opacity:0.8;stroke-width:0.3;" x="127.27515625" xlink:href="#C2_0_919e3f95db" y="224.865791667"/>
    </g>
    <g clip-path="url(#p5857def1fe)">
     <use style="fill:#d76003;fill-opacity:0.8;stroke:#d76003;stroke-opacity:0.8;stroke-width:0.3;" x="285.5021875" xlink:href="#C2_0_919e3f95db" y="187.780604167"/>
    </g>
    <g clip-path="url(#p5857def1fe)">
     <use style="fill:#d76003;fill-opacity:0.8;stroke:#d76003;stroke-opacity:0.8;stroke-width:0.3;" x="180.0175" xlink:href="#C2_0_919e3f95db" y="169.238010417"/>
    </g>
    <g clip-path="url(#p5857def1fe)">
     <use style="fill:#d76003;fill-opacity:0.8;stroke:#d76003;stroke-opacity:0.8;stroke-width:0.3;" x="285.5021875" xlink:href="#C2_0_919e3f95db" y="166.147578125"/>
    </g>
    <g clip-path="url(#p5857def1fe)">
     <use style="fill:#d76003;fill-opacity:0.8;stroke:#d76003;stroke-opacity:0.8;stroke-width:0.3;" x="180.0175" xlink:href="#C2_0_919e3f95db" y="144.514552083"/>
    </g>
    <g clip-path="url(#p5857def1fe)">
     <use style="fill:#d76003;fill-opacity:0.8;stroke:#d76003;stroke-opacity:0.8;stroke-width:0.3;" x="285.5021875" xlink:href="#C2_0_919e3f95db" y="135.243255208"/>
    </g>
    <g clip-path="url(#p5857def1fe)">
     <use style="fill:#d76003;fill-opacity:0.8;stroke:#d76003;stroke-opacity:0.8;stroke-width:0.3;" x="180.0175" xlink:href="#C2_0_919e3f95db" y="240.317953125"/>
    </g>
    <g clip-path="url(#p5857def1fe)">
     <use style="fill:#d76003;fill-opacity:0.8;stroke:#d76003;stroke-opacity:0.8;stroke-width:0.3;" x="285.5021875" xlink:href="#C2_0_919e3f95db" y="190.871036458"/>
    </g>
    <g clip-path="url(#p5857def1fe)">
     <use style="fill:#d76003;fill-opacity:0.8;stroke:#d76003;stroke-opacity:0.8;stroke-width:0.3;" x="127.27515625" xlink:href="#C2_0_919e3f95db" y="125.971958333"/>
    </g>
    <g clip-path="url(#p5857def1fe)">
     <use style="fill:#d76003;fill-opacity:0.8;stroke:#d76003;stroke-opacity:0.8;stroke-width:0.3;" x="232.75984375" xlink:href="#C2_0_919e3f95db" y="163.057145833"/>
    </g>
    <g clip-path="url(#p5857def1fe)">
     <use style="fill:#d76003;fill-opacity:0.8;stroke:#d76003;stroke-opacity:0.8;stroke-width:0.3;" x="496.4715625" xlink:href="#C2_0_919e3f95db" y="209.413630208"/>
    </g>
    <g clip-path="url(#p5857def1fe)">
     <use style="fill:#d76003;fill-opacity:0.8;stroke:#d76003;stroke-opacity:0.8;stroke-width:0.3;" x="232.75984375" xlink:href="#C2_0_919e3f95db" y="215.594494792"/>
    </g>
    <g clip-path="url(#p5857def1fe)">
     <use style="fill:#d76003;fill-opacity:0.8;stroke:#d76003;stroke-opacity:0.8;stroke-width:0.3;" x="338.24453125" xlink:href="#C2_0_919e3f95db" y="187.780604167"/>
    </g>
    <g clip-path="url(#p5857def1fe)">
     <use style="fill:#d76003;fill-opacity:0.8;stroke:#d76003;stroke-opacity:0.8;stroke-width:0.3;" x="74.5328125" xlink:href="#C2_0_919e3f95db" y="224.865791667"/>
    </g>
    <g clip-path="url(#p5857def1fe)">
     <use style="fill:#d76003;fill-opacity:0.8;stroke:#d76003;stroke-opacity:0.8;stroke-width:0.3;" x="390.986875" xlink:href="#C2_0_919e3f95db" y="203.232765625"/>
    </g>
    <g clip-path="url(#p5857def1fe)">
     <use style="fill:#d76003;fill-opacity:0.8;stroke:#d76003;stroke-opacity:0.8;stroke-width:0.3;" x="338.24453125" xlink:href="#C2_0_919e3f95db" y="200.142333333"/>
    </g>
    <g clip-path="url(#p5857def1fe)">
     <use style="fill:#d76003;fill-opacity:0.8;stroke:#d76003;stroke-opacity:0.8;stroke-width:0.3;" x="232.75984375" xlink:href="#C2_0_919e3f95db" y="150.695416667"/>
    </g>
    <g clip-path="url(#p5857def1fe)">
     <use style="fill:#d76003;fill-opacity:0.8;stroke:#d76003;stroke-opacity:0.8;stroke-width:0.3;" x="232.75984375" xlink:href="#C2_0_919e3f95db" y="132.152822917"/>
    </g>
    <g clip-path="url(#p5857def1fe)">
     <use style="fill:#d76003;fill-opacity:0.8;stroke:#d76003;stroke-opacity:0.8;stroke-width:0.3;" x="232.75984375" xlink:href="#C2_0_919e3f95db" y="166.147578125"/>
    </g>
    <g clip-path="url(#p5857def1fe)">
     <use style="fill:#d76003;fill-opacity:0.8;stroke:#d76003;stroke-opacity:0.8;stroke-width:0.3;" x="496.4715625" xlink:href="#C2_0_919e3f95db" y="314.488328125"/>
    </g>
    <g clip-path="url(#p5857def1fe)">
     <use style="fill:#d76003;fill-opacity:0.8;stroke:#d76003;stroke-opacity:0.8;stroke-width:0.3;" x="390.986875" xlink:href="#C2_0_919e3f95db" y="227.956223958"/>
    </g>
    <g clip-path="url(#p5857def1fe)">
     <use style="fill:#d76003;fill-opacity:0.8;stroke:#d76003;stroke-opacity:0.8;stroke-width:0.3;" x="285.5021875" xlink:href="#C2_0_919e3f95db" y="190.871036458"/>
    </g>
    <g clip-path="url(#p5857def1fe)">
     <use style="fill:#d76003;fill-opacity:0.8;stroke:#d76003;stroke-opacity:0.8;stroke-width:0.3;" x="180.0175" xlink:href="#C2_0_919e3f95db" y="187.780604167"/>
    </g>
    <g clip-path="url(#p5857def1fe)">
     <use style="fill:#d76003;fill-opacity:0.8;stroke:#d76003;stroke-opacity:0.8;stroke-width:0.3;" x="285.5021875" xlink:href="#C2_0_919e3f95db" y="181.599739583"/>
    </g>
    <g clip-path="url(#p5857def1fe)">
     <use style="fill:#d76003;fill-opacity:0.8;stroke:#d76003;stroke-opacity:0.8;stroke-width:0.3;" x="338.24453125" xlink:href="#C2_0_919e3f95db" y="181.599739583"/>
    </g>
    <g clip-path="url(#p5857def1fe)">
     <use style="fill:#d76003;fill-opacity:0.8;stroke:#d76003;stroke-opacity:0.8;stroke-width:0.3;" x="180.0175" xlink:href="#C2_0_919e3f95db" y="200.142333333"/>
    </g>
    <g clip-path="url(#p5857def1fe)">
     <use style="fill:#d76003;fill-opacity:0.8;stroke:#d76003;stroke-opacity:0.8;stroke-width:0.3;" x="-136.4365625" xlink:href="#C2_0_919e3f95db" y="184.690171875"/>
    </g>
    <g clip-path="url(#p5857def1fe)">
     <use style="fill:#d76003;fill-opacity:0.8;stroke:#d76003;stroke-opacity:0.8;stroke-width:0.3;" x="812.925625" xlink:href="#C2_0_919e3f95db" y="153.785848958"/>
    </g>
    <g clip-path="url(#p5857def1fe)">
     <use style="fill:#d76003;fill-opacity:0.8;stroke:#d76003;stroke-opacity:0.8;stroke-width:0.3;" x="918.4103125" xlink:href="#C2_0_919e3f95db" y="125.971958333"/>
    </g>
    <g clip-path="url(#p5857def1fe)">
     <use style="fill:#d76003;fill-opacity:0.8;stroke:#d76003;stroke-opacity:0.8;stroke-width:0.3;" x="707.4409375" xlink:href="#C2_0_919e3f95db" y="125.971958333"/>
    </g>
   </g>
   <g id="PolyCollection_2">
    <defs>
     <path d="
M21.7905 -283.959
L21.7905 -230.322
L32.4455 -231.258
L43.1005 -232.093
L53.7555 -232.937
L64.4105 -233.752
L75.0656 -234.584
L85.7206 -235.405
L96.3756 -236.238
L107.031 -237.161
L117.686 -238.136
L128.341 -238.616
L138.996 -239.136
L149.651 -239.715
L160.306 -240.279
L170.961 -240.984
L181.616 -241.53
L192.271 -242.068
L202.926 -242.36
L213.581 -242.756
L224.236 -242.926
L234.891 -242.985
L245.546 -243.554
L256.201 -243.825
L266.856 -243.657
L277.511 -243.975
L288.166 -243.875
L298.821 -243.463
L309.476 -243.365
L320.131 -242.908
L330.786 -241.843
L341.441 -241.618
L352.096 -240.395
L362.751 -239.669
L373.406 -238.948
L384.061 -238.123
L394.716 -237.487
L405.371 -236.855
L416.026 -235.758
L426.681 -234.475
L437.336 -233.426
L447.991 -231.958
L458.646 -230.998
L469.301 -229.766
L479.956 -229.104
L490.611 -228.263
L501.266 -226.923
L511.921 -225.583
L522.576 -224.251
L533.231 -222.952
L543.886 -221.878
L554.541 -220.683
L565.196 -219.687
L575.851 -218.691
L586.506 -217.694
L597.161 -216.698
L607.817 -215.702
L618.472 -214.706
L629.127 -213.435
L639.782 -212.154
L650.437 -210.873
L661.092 -209.592
L671.747 -208.318
L682.402 -207.045
L693.057 -205.771
L703.712 -204.498
L714.367 -203.224
L725.022 -201.951
L735.677 -200.91
L746.332 -199.931
L756.987 -198.952
L767.642 -197.973
L778.297 -196.994
L788.952 -196.015
L799.607 -194.776
L810.262 -193.392
L820.917 -192.008
L831.572 -190.624
L842.227 -189.241
L852.882 -187.857
L863.537 -186.473
L874.192 -185.089
L884.847 -183.706
L895.502 -182.322
L906.157 -180.938
L916.812 -179.554
L927.467 -178.171
L938.122 -176.787
L948.777 -175.403
L959.432 -174.019
L970.087 -172.636
L980.742 -171.252
L991.397 -169.923
L1002.05 -168.64
L1012.71 -167.356
L1023.36 -166.072
L1034.02 -164.788
L1044.67 -163.505
L1055.33 -162.221
L1065.98 -160.937
L1076.64 -159.653
L1076.64 -328.694
L1076.64 -328.694
L1065.98 -327.952
L1055.33 -327.154
L1044.67 -326.254
L1034.02 -325.354
L1023.36 -324.452
L1012.71 -323.547
L1002.05 -322.643
L991.397 -321.739
L980.742 -320.834
L970.087 -319.93
L959.432 -319.024
L948.777 -318.118
L938.122 -317.211
L927.467 -316.305
L916.812 -315.398
L906.157 -314.484
L895.502 -313.495
L884.847 -312.683
L874.192 -311.782
L863.537 -310.881
L852.882 -309.979
L842.227 -309.095
L831.572 -308.432
L820.917 -307.721
L810.262 -306.846
L799.607 -305.919
L788.952 -305.02
L778.297 -304.118
L767.642 -303.254
L756.987 -302.621
L746.332 -301.981
L735.677 -301.108
L725.022 -300.055
L714.367 -299.002
L703.712 -298.148
L693.057 -297.352
L682.402 -296.721
L671.747 -296.089
L661.092 -295.455
L650.437 -294.822
L639.782 -294.059
L629.127 -293.171
L618.472 -292.357
L607.817 -291.317
L597.161 -290.53
L586.506 -289.616
L575.851 -288.808
L565.196 -287.924
L554.541 -287.166
L543.886 -286.442
L533.231 -285.746
L522.576 -285.146
L511.921 -284.648
L501.266 -283.94
L490.611 -283.337
L479.956 -282.699
L469.301 -281.836
L458.646 -281.011
L447.991 -280.47
L437.336 -279.837
L426.681 -279.105
L416.026 -278.529
L405.371 -277.9
L394.716 -277.443
L384.061 -276.982
L373.406 -276.524
L362.751 -276.099
L352.096 -275.611
L341.441 -274.988
L330.786 -274.695
L320.131 -274.244
L309.476 -273.802
L298.821 -273.592
L288.166 -273.375
L277.511 -272.89
L266.856 -272.269
L256.201 -271.869
L245.546 -271.619
L234.891 -271.219
L224.236 -270.989
L213.581 -270.807
L202.926 -270.836
L192.271 -271.266
L181.616 -271.003
L170.961 -271.125
L160.306 -271.703
L149.651 -271.969
L138.996 -273.104
L128.341 -273.849
L117.686 -274.977
L107.031 -275.286
L96.3756 -275.922
L85.7206 -277.431
L75.0656 -278.502
L64.4105 -279.603
L53.7555 -280.558
L43.1005 -281.602
L32.4455 -282.647
L21.7905 -283.959
z
" id="C3_0_0b277d6d94"/>
    </defs>
    <g clip-path="url(#p5857def1fe)">
     <use style="fill:#d76003;fill-opacity:0.15;stroke:#d76003;stroke-opacity:0.15;stroke-width:0.3;" x="0.0" xlink:href="#C3_0_0b277d6d94" y="443.52"/>
    </g>
   </g>
   <g id="PathCollection_3">
    <defs>
     <path d="
M0 2.23607
C0.593012 2.23607 1.16182 2.00046 1.58114 1.58114
C2.00046 1.16182 2.23607 0.593012 2.23607 0
C2.23607 -0.593012 2.00046 -1.16182 1.58114 -1.58114
C1.16182 -2.00046 0.593012 -2.23607 0 -2.23607
C-0.593012 -2.23607 -1.16182 -2.00046 -1.58114 -1.58114
C-2.00046 -1.16182 -2.23607 -0.593012 -2.23607 0
C-2.23607 0.593012 -2.00046 1.16182 -1.58114 1.58114
C-1.16182 2.00046 -0.593012 2.23607 0 2.23607
z
" id="C4_0_919e3f95db"/>
    </defs>
    <g clip-path="url(#p5857def1fe)">
     <use style="fill:#7570b3;fill-opacity:0.8;stroke:#7570b3;stroke-opacity:0.8;stroke-width:0.3;" x="180.0175" xlink:href="#C4_0_919e3f95db" y="153.785848958"/>
    </g>
    <g clip-path="url(#p5857def1fe)">
     <use style="fill:#7570b3;fill-opacity:0.8;stroke:#7570b3;stroke-opacity:0.8;stroke-width:0.3;" x="-136.4365625" xlink:href="#C4_0_919e3f95db" y="101.2485"/>
    </g>
    <g clip-path="url(#p5857def1fe)">
     <use style="fill:#7570b3;fill-opacity:0.8;stroke:#7570b3;stroke-opacity:0.8;stroke-width:0.3;" x="127.27515625" xlink:href="#C4_0_919e3f95db" y="141.424119792"/>
    </g>
    <g clip-path="url(#p5857def1fe)">
     <use style="fill:#7570b3;fill-opacity:0.8;stroke:#7570b3;stroke-opacity:0.8;stroke-width:0.3;" x="100.903984375" xlink:href="#C4_0_919e3f95db" y="178.509307292"/>
    </g>
    <g clip-path="url(#p5857def1fe)">
     <use style="fill:#7570b3;fill-opacity:0.8;stroke:#7570b3;stroke-opacity:0.8;stroke-width:0.3;" x="285.5021875" xlink:href="#C4_0_919e3f95db" y="206.323197917"/>
    </g>
    <g clip-path="url(#p5857def1fe)">
     <use style="fill:#7570b3;fill-opacity:0.8;stroke:#7570b3;stroke-opacity:0.8;stroke-width:0.3;" x="338.24453125" xlink:href="#C4_0_919e3f95db" y="169.238010417"/>
    </g>
    <g clip-path="url(#p5857def1fe)">
     <use style="fill:#7570b3;fill-opacity:0.8;stroke:#7570b3;stroke-opacity:0.8;stroke-width:0.3;" x="760.18328125" xlink:href="#C4_0_919e3f95db" y="147.604984375"/>
    </g>
    <g clip-path="url(#p5857def1fe)">
     <use style="fill:#7570b3;fill-opacity:0.8;stroke:#7570b3;stroke-opacity:0.8;stroke-width:0.3;" x="760.18328125" xlink:href="#C4_0_919e3f95db" y="141.424119792"/>
    </g>
   </g>
   <g id="PolyCollection_3">
    <defs>
     <path d="
M21.7905 -318.897
L21.7905 -249.576
L32.4455 -250.094
L43.1005 -250.648
L53.7555 -251.227
L64.4105 -251.81
L75.0656 -252.393
L85.7206 -252.976
L96.3756 -253.558
L107.031 -254.167
L117.686 -254.719
L128.341 -255.302
L138.996 -255.911
L149.651 -256.554
L160.306 -257.197
L170.961 -257.84
L181.616 -258.483
L192.271 -258.769
L202.926 -258.446
L213.581 -258.802
L224.236 -258.949
L234.891 -258.327
L245.546 -258.455
L256.201 -258.348
L266.856 -256.376
L277.511 -255.784
L288.166 -254.85
L298.821 -252.798
L309.476 -251.095
L320.131 -248.97
L330.786 -247.021
L341.441 -244.92
L352.096 -242.655
L362.751 -240.707
L373.406 -238.716
L384.061 -236.64
L394.716 -234.57
L405.371 -232.5
L416.026 -230.407
L426.681 -228.232
L437.336 -226.281
L447.991 -224.203
L458.646 -222.126
L469.301 -220.049
L479.956 -217.971
L490.611 -215.894
L501.266 -213.817
L511.921 -211.739
L522.576 -209.662
L533.231 -207.585
L543.886 -205.507
L554.541 -203.43
L565.196 -201.353
L575.851 -199.277
L586.506 -197.205
L597.161 -195.134
L607.817 -193.062
L618.472 -190.99
L629.127 -188.918
L639.782 -186.847
L650.437 -184.719
L661.092 -182.372
L671.747 -180.025
L682.402 -177.678
L693.057 -175.375
L703.712 -173.375
L714.367 -171.375
L725.022 -169.374
L735.677 -167.367
L746.332 -165.148
L756.987 -162.929
L767.642 -160.709
L778.297 -158.492
L788.952 -156.278
L799.607 -154.064
L810.262 -151.851
L820.917 -149.637
L831.572 -147.423
L842.227 -145.209
L852.882 -142.995
L863.537 -140.782
L874.192 -138.568
L884.847 -136.354
L895.502 -134.14
L906.157 -131.927
L916.812 -129.713
L927.467 -127.499
L938.122 -125.285
L948.777 -123.072
L959.432 -120.858
L970.087 -118.644
L980.742 -116.43
L991.397 -114.216
L1002.05 -112.003
L1012.71 -109.789
L1023.36 -107.575
L1034.02 -105.361
L1044.67 -103.148
L1055.33 -100.98
L1065.98 -98.8407
L1076.64 -96.7014
L1076.64 -315.274
L1076.64 -315.274
L1065.98 -314.684
L1055.33 -314.095
L1044.67 -313.589
L1034.02 -313.092
L1023.36 -312.52
L1012.71 -311.821
L1002.05 -311.225
L991.397 -310.661
L980.742 -310.095
L970.087 -309.525
L959.432 -308.865
L948.777 -308.37
L938.122 -307.868
L927.467 -307.357
L916.812 -306.847
L906.157 -306.25
L895.502 -305.712
L884.847 -305.131
L874.192 -304.632
L863.537 -304.083
L852.882 -303.649
L842.227 -303.164
L831.572 -302.667
L820.917 -302.179
L810.262 -301.706
L799.607 -301.477
L788.952 -301.122
L778.297 -300.319
L767.642 -299.831
L756.987 -299.322
L746.332 -298.966
L735.677 -298.872
L725.022 -298.584
L714.367 -298.515
L703.712 -298.495
L693.057 -298.358
L682.402 -298.27
L671.747 -298.272
L661.092 -298.047
L650.437 -298.184
L639.782 -298.069
L629.127 -298.182
L618.472 -298.138
L607.817 -298.093
L597.161 -298.05
L586.506 -298.167
L575.851 -298.334
L565.196 -298.557
L554.541 -298.772
L543.886 -298.943
L533.231 -299.22
L522.576 -299.504
L511.921 -299.749
L501.266 -299.992
L490.611 -300.199
L479.956 -300.376
L469.301 -300.433
L458.646 -300.829
L447.991 -301.217
L437.336 -301.576
L426.681 -301.876
L416.026 -302.273
L405.371 -302.69
L394.716 -303.012
L384.061 -303.216
L373.406 -303.706
L362.751 -304.177
L352.096 -304.491
L341.441 -305.013
L330.786 -305.546
L320.131 -306.023
L309.476 -306.44
L298.821 -306.857
L288.166 -307.217
L277.511 -307.456
L266.856 -307.841
L256.201 -308.486
L245.546 -308.888
L234.891 -309.357
L224.236 -309.751
L213.581 -310.077
L202.926 -310.403
L192.271 -310.729
L181.616 -311.055
L170.961 -311.429
L160.306 -311.977
L149.651 -312.256
L138.996 -312.641
L128.341 -313.128
L117.686 -313.545
L107.031 -314.114
L96.3756 -314.74
L85.7206 -315.191
L75.0656 -315.607
L64.4105 -316.024
L53.7555 -316.447
L43.1005 -317.259
L32.4455 -318.111
L21.7905 -318.897
z
" id="C5_0_47fb279b78"/>
    </defs>
    <g clip-path="url(#p5857def1fe)">
     <use style="fill:#7570b3;fill-opacity:0.15;stroke:#7570b3;stroke-opacity:0.15;stroke-width:0.3;" x="0.0" xlink:href="#C5_0_47fb279b78" y="443.52"/>
    </g>
   </g>
   <g id="line2d_25">
    <path clip-path="url(#p5857def1fe)" d="
M21.7905 236.44
L32.4455 235.172
L43.1005 233.905
L53.7555 232.637
L64.4105 231.37
L75.0656 230.102
L85.7206 228.835
L96.3756 227.567
L107.031 226.3
L117.686 225.032
L128.341 223.764
L138.996 222.497
L149.651 221.229
L160.306 219.962
L170.961 218.694
L181.616 217.427
L192.271 216.159
L202.926 214.892
L213.581 213.624
L224.236 212.356
L234.891 211.089
L245.546 209.821
L256.201 208.554
L266.856 207.286
L277.511 206.019
L288.166 204.751
L298.821 203.484
L309.476 202.216
L320.131 200.948
L330.786 199.681
L341.441 198.413
L352.096 197.146
L362.751 195.878
L373.406 194.611
L384.061 193.343
L394.716 192.076
L405.371 190.808
L416.026 189.54
L426.681 188.273
L437.336 187.005
L447.991 185.738
L458.646 184.47
L469.301 183.203
L479.956 181.935
L490.611 180.667
L501.266 179.4
L511.921 178.132
L522.576 176.865
L533.231 175.597
L543.886 174.33
L554.541 173.062
L565.196 171.795
L575.851 170.527
L586.506 169.259
L597.161 167.992
L607.817 166.724
L618.472 165.457
L629.127 164.189
L639.782 162.922
L650.437 161.654
L661.092 160.387
L671.747 159.119
L682.402 157.851
L693.057 156.584
L703.712 155.316
L714.367 154.049
L725.022 152.781
L735.677 151.514
L746.332 150.246
L756.987 148.979
L767.642 147.711
L778.297 146.443
L788.952 145.176
L799.607 143.908
L810.262 142.641
L820.917 141.373
L831.572 140.106
L842.227 138.838
L852.882 137.571
L863.537 136.303
L874.192 135.035
L884.847 133.768
L895.502 132.5
L906.157 131.233
L916.812 129.965
L927.467 128.698
L938.122 127.43
L948.777 126.163
L959.432 124.895
L970.087 123.627
L980.742 122.36
L991.397 121.092
L1002.05 119.825
L1012.71 118.557
L1023.36 117.29
L1034.02 116.022
L1044.67 114.755
L1055.33 113.487
L1065.98 112.219
L1076.64 110.952" style="fill:none;stroke:#1b9e77;stroke-linecap:round;stroke-width:2.625;"/>
   </g>
   <g id="line2d_26">
    <path clip-path="url(#p5857def1fe)" d="
M21.7905 192.527
L32.4455 192.199
L43.1005 191.871
L53.7555 191.543
L64.4105 191.215
L75.0656 190.888
L85.7206 190.56
L96.3756 190.232
L107.031 189.904
L117.686 189.576
L128.341 189.248
L138.996 188.92
L149.651 188.593
L160.306 188.265
L170.961 187.937
L181.616 187.609
L192.271 187.281
L202.926 186.953
L213.581 186.625
L224.236 186.297
L234.891 185.97
L245.546 185.642
L256.201 185.314
L266.856 184.986
L277.511 184.658
L288.166 184.33
L298.821 184.002
L309.476 183.675
L320.131 183.347
L330.786 183.019
L341.441 182.691
L352.096 182.363
L362.751 182.035
L373.406 181.707
L384.061 181.379
L394.716 181.052
L405.371 180.724
L416.026 180.396
L426.681 180.068
L437.336 179.74
L447.991 179.412
L458.646 179.084
L469.301 178.757
L479.956 178.429
L490.611 178.101
L501.266 177.773
L511.921 177.445
L522.576 177.117
L533.231 176.789
L543.886 176.461
L554.541 176.134
L565.196 175.806
L575.851 175.478
L586.506 175.15
L597.161 174.822
L607.817 174.494
L618.472 174.166
L629.127 173.839
L639.782 173.511
L650.437 173.183
L661.092 172.855
L671.747 172.527
L682.402 172.199
L693.057 171.871
L703.712 171.543
L714.367 171.216
L725.022 170.888
L735.677 170.56
L746.332 170.232
L756.987 169.904
L767.642 169.576
L778.297 169.248
L788.952 168.921
L799.607 168.593
L810.262 168.265
L820.917 167.937
L831.572 167.609
L842.227 167.281
L852.882 166.953
L863.537 166.625
L874.192 166.298
L884.847 165.97
L895.502 165.642
L906.157 165.314
L916.812 164.986
L927.467 164.658
L938.122 164.33
L948.777 164.003
L959.432 163.675
L970.087 163.347
L980.742 163.019
L991.397 162.691
L1002.05 162.363
L1012.71 162.035
L1023.36 161.707
L1034.02 161.38
L1044.67 161.052
L1055.33 160.724
L1065.98 160.396
L1076.64 160.068" style="fill:none;stroke:#d76003;stroke-linecap:round;stroke-width:2.625;"/>
   </g>
   <g id="line2d_27">
    <path clip-path="url(#p5857def1fe)" d="
M21.7905 150.371
L32.4455 150.544
L43.1005 150.718
L53.7555 150.892
L64.4105 151.066
L75.0656 151.24
L85.7206 151.414
L96.3756 151.588
L107.031 151.762
L117.686 151.936
L128.341 152.11
L138.996 152.284
L149.651 152.458
L160.306 152.632
L170.961 152.806
L181.616 152.98
L192.271 153.154
L202.926 153.328
L213.581 153.502
L224.236 153.675
L234.891 153.849
L245.546 154.023
L256.201 154.197
L266.856 154.371
L277.511 154.545
L288.166 154.719
L298.821 154.893
L309.476 155.067
L320.131 155.241
L330.786 155.415
L341.441 155.589
L352.096 155.763
L362.751 155.937
L373.406 156.111
L384.061 156.285
L394.716 156.459
L405.371 156.633
L416.026 156.807
L426.681 156.98
L437.336 157.154
L447.991 157.328
L458.646 157.502
L469.301 157.676
L479.956 157.85
L490.611 158.024
L501.266 158.198
L511.921 158.372
L522.576 158.546
L533.231 158.72
L543.886 158.894
L554.541 159.068
L565.196 159.242
L575.851 159.416
L586.506 159.59
L597.161 159.764
L607.817 159.938
L618.472 160.112
L629.127 160.285
L639.782 160.459
L650.437 160.633
L661.092 160.807
L671.747 160.981
L682.402 161.155
L693.057 161.329
L703.712 161.503
L714.367 161.677
L725.022 161.851
L735.677 162.025
L746.332 162.199
L756.987 162.373
L767.642 162.547
L778.297 162.721
L788.952 162.895
L799.607 163.069
L810.262 163.243
L820.917 163.416
L831.572 163.59
L842.227 163.764
L852.882 163.938
L863.537 164.112
L874.192 164.286
L884.847 164.46
L895.502 164.634
L906.157 164.808
L916.812 164.982
L927.467 165.156
L938.122 165.33
L948.777 165.504
L959.432 165.678
L970.087 165.852
L980.742 166.026
L991.397 166.2
L1002.05 166.374
L1012.71 166.548
L1023.36 166.721
L1034.02 166.895
L1044.67 167.069
L1055.33 167.243
L1065.98 167.417
L1076.64 167.591" style="fill:none;stroke:#7570b3;stroke-linecap:round;stroke-width:2.625;"/>
   </g>
   <g id="patch_3">
    <path d="
M21.7905 27.0781
L1076.64 27.0781" style="fill:none;"/>
   </g>
   <g id="patch_4">
    <path d="
M1076.64 397.93
L1076.64 27.0781" style="fill:none;"/>
   </g>
   <g id="patch_5">
    <path d="
M21.7905 397.93
L1076.64 397.93" style="fill:none;"/>
   </g>
   <g id="patch_6">
    <path d="
M21.7905 397.93
L21.7905 27.0781" style="fill:none;"/>
   </g>
   <g id="text_15">
    <!-- RAW interaction of CHARA_nivp1 and BIRTH_tallanacer -->
    <defs>
     <path id="BitstreamVeraSans-Roman-20"/>
     <path d="
M30.6094 48.3906
Q23.3906 48.3906 19.1875 42.75
Q14.9844 37.1094 14.9844 27.2969
Q14.9844 17.4844 19.1562 11.8438
Q23.3438 6.20312 30.6094 6.20312
Q37.7969 6.20312 41.9844 11.8594
Q46.1875 17.5312 46.1875 27.2969
Q46.1875 37.0156 41.9844 42.7031
Q37.7969 48.3906 30.6094 48.3906
M30.6094 56
Q42.3281 56 49.0156 48.375
Q55.7188 40.7656 55.7188 27.2969
Q55.7188 13.875 49.0156 6.21875
Q42.3281 -1.42188 30.6094 -1.42188
Q18.8438 -1.42188 12.1719 6.21875
Q5.51562 13.875 5.51562 27.2969
Q5.51562 40.7656 12.1719 48.375
Q18.8438 56 30.6094 56" id="BitstreamVeraSans-Roman-6f"/>
     <path d="
M9.42188 54.6875
L18.4062 54.6875
L18.4062 0
L9.42188 0
z

M9.42188 75.9844
L18.4062 75.9844
L18.4062 64.5938
L9.42188 64.5938
z
" id="BitstreamVeraSans-Roman-69"/>
     <path d="
M34.1875 63.1875
L20.7969 26.9062
L47.6094 26.9062
z

M28.6094 72.9062
L39.7969 72.9062
L67.5781 0
L57.3281 0
L50.6875 18.7031
L17.8281 18.7031
L11.1875 0
L0.78125 0
z
" id="BitstreamVeraSans-Roman-41"/>
     <path d="
M2.98438 54.6875
L12.5 54.6875
L29.5938 8.79688
L46.6875 54.6875
L56.2031 54.6875
L35.6875 0
L23.4844 0
z
" id="BitstreamVeraSans-Roman-76"/>
     <path d="
M45.4062 46.3906
L45.4062 75.9844
L54.3906 75.9844
L54.3906 0
L45.4062 0
L45.4062 8.20312
Q42.5781 3.32812 38.25 0.953125
Q33.9375 -1.42188 27.875 -1.42188
Q17.9688 -1.42188 11.7344 6.48438
Q5.51562 14.4062 5.51562 27.2969
Q5.51562 40.1875 11.7344 48.0938
Q17.9688 56 27.875 56
Q33.9375 56 38.25 53.625
Q42.5781 51.2656 45.4062 46.3906
M14.7969 27.2969
Q14.7969 17.3906 18.875 11.75
Q22.9531 6.10938 30.0781 6.10938
Q37.2031 6.10938 41.2969 11.75
Q45.4062 17.3906 45.4062 27.2969
Q45.4062 37.2031 41.2969 42.8438
Q37.2031 48.4844 30.0781 48.4844
Q22.9531 48.4844 18.875 42.8438
Q14.7969 37.2031 14.7969 27.2969" id="BitstreamVeraSans-Roman-64"/>
     <path d="
M37.1094 75.9844
L37.1094 68.5
L28.5156 68.5
Q23.6875 68.5 21.7969 66.5469
Q19.9219 64.5938 19.9219 59.5156
L19.9219 54.6875
L34.7188 54.6875
L34.7188 47.7031
L19.9219 47.7031
L19.9219 0
L10.8906 0
L10.8906 47.7031
L2.29688 47.7031
L2.29688 54.6875
L10.8906 54.6875
L10.8906 58.5
Q10.8906 67.625 15.1406 71.7969
Q19.3906 75.9844 28.6094 75.9844
z
" id="BitstreamVeraSans-Roman-66"/>
     <path d="
M18.1094 8.20312
L18.1094 -20.7969
L9.07812 -20.7969
L9.07812 54.6875
L18.1094 54.6875
L18.1094 46.3906
Q20.9531 51.2656 25.2656 53.625
Q29.5938 56 35.5938 56
Q45.5625 56 51.7812 48.0938
Q58.0156 40.1875 58.0156 27.2969
Q58.0156 14.4062 51.7812 6.48438
Q45.5625 -1.42188 35.5938 -1.42188
Q29.5938 -1.42188 25.2656 0.953125
Q20.9531 3.32812 18.1094 8.20312
M48.6875 27.2969
Q48.6875 37.2031 44.6094 42.8438
Q40.5312 48.4844 33.4062 48.4844
Q26.2656 48.4844 22.1875 42.8438
Q18.1094 37.2031 18.1094 27.2969
Q18.1094 17.3906 22.1875 11.75
Q26.2656 6.10938 33.4062 6.10938
Q40.5312 6.10938 44.6094 11.75
Q48.6875 17.3906 48.6875 27.2969" id="BitstreamVeraSans-Roman-70"/>
    </defs>
    <g style="fill:#262626;" transform="translate(385.26203125 22.078125)scale(0.12 -0.12)">
     <use xlink:href="#BitstreamVeraSans-Roman-52"/>
     <use x="65.482421875" xlink:href="#BitstreamVeraSans-Roman-41"/>
     <use x="128.390625" xlink:href="#BitstreamVeraSans-Roman-57"/>
     <use x="227.267578125" xlink:href="#BitstreamVeraSans-Roman-20"/>
     <use x="259.0546875" xlink:href="#BitstreamVeraSans-Roman-69"/>
     <use x="286.837890625" xlink:href="#BitstreamVeraSans-Roman-6e"/>
     <use x="350.216796875" xlink:href="#BitstreamVeraSans-Roman-74"/>
     <use x="389.42578125" xlink:href="#BitstreamVeraSans-Roman-65"/>
     <use x="450.94921875" xlink:href="#BitstreamVeraSans-Roman-72"/>
     <use x="492.0625" xlink:href="#BitstreamVeraSans-Roman-61"/>
     <use x="553.341796875" xlink:href="#BitstreamVeraSans-Roman-63"/>
     <use x="608.322265625" xlink:href="#BitstreamVeraSans-Roman-74"/>
     <use x="647.53125" xlink:href="#BitstreamVeraSans-Roman-69"/>
     <use x="675.314453125" xlink:href="#BitstreamVeraSans-Roman-6f"/>
     <use x="736.49609375" xlink:href="#BitstreamVeraSans-Roman-6e"/>
     <use x="799.875" xlink:href="#BitstreamVeraSans-Roman-20"/>
     <use x="831.662109375" xlink:href="#BitstreamVeraSans-Roman-6f"/>
     <use x="892.84375" xlink:href="#BitstreamVeraSans-Roman-66"/>
     <use x="928.048828125" xlink:href="#BitstreamVeraSans-Roman-20"/>
     <use x="959.8359375" xlink:href="#BitstreamVeraSans-Roman-43"/>
     <use x="1029.66015625" xlink:href="#BitstreamVeraSans-Roman-48"/>
     <use x="1104.85546875" xlink:href="#BitstreamVeraSans-Roman-41"/>
     <use x="1173.26367188" xlink:href="#BitstreamVeraSans-Roman-52"/>
     <use x="1238.74609375" xlink:href="#BitstreamVeraSans-Roman-41"/>
     <use x="1307.15429688" xlink:href="#BitstreamVeraSans-Roman-5f"/>
     <use x="1357.15429688" xlink:href="#BitstreamVeraSans-Roman-6e"/>
     <use x="1420.53320312" xlink:href="#BitstreamVeraSans-Roman-69"/>
     <use x="1448.31640625" xlink:href="#BitstreamVeraSans-Roman-76"/>
     <use x="1507.49609375" xlink:href="#BitstreamVeraSans-Roman-70"/>
     <use x="1570.97265625" xlink:href="#BitstreamVeraSans-Roman-31"/>
     <use x="1634.59570312" xlink:href="#BitstreamVeraSans-Roman-20"/>
     <use x="1666.3828125" xlink:href="#BitstreamVeraSans-Roman-61"/>
     <use x="1727.66210938" xlink:href="#BitstreamVeraSans-Roman-6e"/>
     <use x="1791.04101562" xlink:href="#BitstreamVeraSans-Roman-64"/>
     <use x="1854.51757812" xlink:href="#BitstreamVeraSans-Roman-20"/>
     <use x="1886.3046875" xlink:href="#BitstreamVeraSans-Roman-42"/>
     <use x="1954.90820312" xlink:href="#BitstreamVeraSans-Roman-49"/>
     <use x="1984.40039062" xlink:href="#BitstreamVeraSans-Roman-52"/>
     <use x="2046.6328125" xlink:href="#BitstreamVeraSans-Roman-54"/>
     <use x="2107.71679688" xlink:href="#BitstreamVeraSans-Roman-48"/>
     <use x="2182.91210938" xlink:href="#BitstreamVeraSans-Roman-5f"/>
     <use x="2232.91210938" xlink:href="#BitstreamVeraSans-Roman-74"/>
     <use x="2272.12109375" xlink:href="#BitstreamVeraSans-Roman-61"/>
     <use x="2333.40039062" xlink:href="#BitstreamVeraSans-Roman-6c"/>
     <use x="2361.18359375" xlink:href="#BitstreamVeraSans-Roman-6c"/>
     <use x="2388.96679688" xlink:href="#BitstreamVeraSans-Roman-61"/>
     <use x="2450.24609375" xlink:href="#BitstreamVeraSans-Roman-6e"/>
     <use x="2513.625" xlink:href="#BitstreamVeraSans-Roman-61"/>
     <use x="2574.90429688" xlink:href="#BitstreamVeraSans-Roman-63"/>
     <use x="2629.88476562" xlink:href="#BitstreamVeraSans-Roman-65"/>
     <use x="2691.40820312" xlink:href="#BitstreamVeraSans-Roman-72"/>
    </g>
   </g>
   <g id="legend_1">
    <g id="text_16">
     <!-- CHARA_nivp1 -->
     <g style="fill:#262626;" transform="translate(970.2059375 45.19625)scale(0.12 -0.12)">
      <use xlink:href="#BitstreamVeraSans-Roman-43"/>
      <use x="69.82421875" xlink:href="#BitstreamVeraSans-Roman-48"/>
      <use x="145.01953125" xlink:href="#BitstreamVeraSans-Roman-41"/>
      <use x="213.427734375" xlink:href="#BitstreamVeraSans-Roman-52"/>
      <use x="278.91015625" xlink:href="#BitstreamVeraSans-Roman-41"/>
      <use x="347.318359375" xlink:href="#BitstreamVeraSans-Roman-5f"/>
      <use x="397.318359375" xlink:href="#BitstreamVeraSans-Roman-6e"/>
      <use x="460.697265625" xlink:href="#BitstreamVeraSans-Roman-69"/>
      <use x="488.48046875" xlink:href="#BitstreamVeraSans-Roman-76"/>
      <use x="547.66015625" xlink:href="#BitstreamVeraSans-Roman-70"/>
      <use x="611.13671875" xlink:href="#BitstreamVeraSans-Roman-31"/>
     </g>
    </g>
    <g id="line2d_28">
     <path d="
M951.967 57.1241
L971.967 57.1241" style="fill:none;stroke:#1b9e77;stroke-linecap:round;stroke-width:2.625;"/>
    </g>
    <g id="line2d_29"/>
    <g id="text_17">
     <!-- primaria o menos -->
     <defs>
      <path d="
M52 44.1875
Q55.375 50.25 60.0625 53.125
Q64.75 56 71.0938 56
Q79.6406 56 84.2812 50.0156
Q88.9219 44.0469 88.9219 33.0156
L88.9219 0
L79.8906 0
L79.8906 32.7188
Q79.8906 40.5781 77.0938 44.375
Q74.3125 48.1875 68.6094 48.1875
Q61.625 48.1875 57.5625 43.5469
Q53.5156 38.9219 53.5156 30.9062
L53.5156 0
L44.4844 0
L44.4844 32.7188
Q44.4844 40.625 41.7031 44.4062
Q38.9219 48.1875 33.1094 48.1875
Q26.2188 48.1875 22.1562 43.5312
Q18.1094 38.875 18.1094 30.9062
L18.1094 0
L9.07812 0
L9.07812 54.6875
L18.1094 54.6875
L18.1094 46.1875
Q21.1875 51.2188 25.4844 53.6094
Q29.7812 56 35.6875 56
Q41.6562 56 45.8281 52.9688
Q50 49.9531 52 44.1875" id="BitstreamVeraSans-Roman-6d"/>
      <path d="
M44.2812 53.0781
L44.2812 44.5781
Q40.4844 46.5312 36.375 47.5
Q32.2812 48.4844 27.875 48.4844
Q21.1875 48.4844 17.8438 46.4375
Q14.5 44.3906 14.5 40.2812
Q14.5 37.1562 16.8906 35.375
Q19.2812 33.5938 26.5156 31.9844
L29.5938 31.2969
Q39.1562 29.25 43.1875 25.5156
Q47.2188 21.7812 47.2188 15.0938
Q47.2188 7.46875 41.1875 3.01562
Q35.1562 -1.42188 24.6094 -1.42188
Q20.2188 -1.42188 15.4531 -0.5625
Q10.6875 0.296875 5.42188 2
L5.42188 11.2812
Q10.4062 8.6875 15.2344 7.39062
Q20.0625 6.10938 24.8125 6.10938
Q31.1562 6.10938 34.5625 8.28125
Q37.9844 10.4531 37.9844 14.4062
Q37.9844 18.0625 35.5156 20.0156
Q33.0625 21.9688 24.7031 23.7812
L21.5781 24.5156
Q13.2344 26.2656 9.51562 29.9062
Q5.8125 33.5469 5.8125 39.8906
Q5.8125 47.6094 11.2812 51.7969
Q16.75 56 26.8125 56
Q31.7812 56 36.1719 55.2656
Q40.5781 54.5469 44.2812 53.0781" id="BitstreamVeraSans-Roman-73"/>
     </defs>
     <g style="fill:#262626;" transform="translate(979.96703125 60.6240625)scale(0.1 -0.1)">
      <use xlink:href="#BitstreamVeraSans-Roman-70"/>
      <use x="63.4765625" xlink:href="#BitstreamVeraSans-Roman-72"/>
      <use x="104.58984375" xlink:href="#BitstreamVeraSans-Roman-69"/>
      <use x="132.373046875" xlink:href="#BitstreamVeraSans-Roman-6d"/>
      <use x="229.78515625" xlink:href="#BitstreamVeraSans-Roman-61"/>
      <use x="291.064453125" xlink:href="#BitstreamVeraSans-Roman-72"/>
      <use x="332.177734375" xlink:href="#BitstreamVeraSans-Roman-69"/>
      <use x="359.9609375" xlink:href="#BitstreamVeraSans-Roman-61"/>
      <use x="421.240234375" xlink:href="#BitstreamVeraSans-Roman-20"/>
      <use x="453.02734375" xlink:href="#BitstreamVeraSans-Roman-6f"/>
      <use x="514.208984375" xlink:href="#BitstreamVeraSans-Roman-20"/>
      <use x="545.99609375" xlink:href="#BitstreamVeraSans-Roman-6d"/>
      <use x="643.408203125" xlink:href="#BitstreamVeraSans-Roman-65"/>
      <use x="704.931640625" xlink:href="#BitstreamVeraSans-Roman-6e"/>
      <use x="768.310546875" xlink:href="#BitstreamVeraSans-Roman-6f"/>
      <use x="829.4921875" xlink:href="#BitstreamVeraSans-Roman-73"/>
     </g>
    </g>
    <g id="line2d_30">
     <path d="
M951.967 71.8022
L971.967 71.8022" style="fill:none;stroke:#d76003;stroke-linecap:round;stroke-width:2.625;"/>
    </g>
    <g id="line2d_31"/>
    <g id="text_18">
     <!-- secundaria -->
     <defs>
      <path d="
M8.5 21.5781
L8.5 54.6875
L17.4844 54.6875
L17.4844 21.9219
Q17.4844 14.1562 20.5 10.2656
Q23.5312 6.39062 29.5938 6.39062
Q36.8594 6.39062 41.0781 11.0312
Q45.3125 15.6719 45.3125 23.6875
L45.3125 54.6875
L54.2969 54.6875
L54.2969 0
L45.3125 0
L45.3125 8.40625
Q42.0469 3.42188 37.7188 1
Q33.4062 -1.42188 27.6875 -1.42188
Q18.2656 -1.42188 13.375 4.4375
Q8.5 10.2969 8.5 21.5781" id="BitstreamVeraSans-Roman-75"/>
     </defs>
     <g style="fill:#262626;" transform="translate(979.96703125 75.3021875)scale(0.1 -0.1)">
      <use xlink:href="#BitstreamVeraSans-Roman-73"/>
      <use x="52.099609375" xlink:href="#BitstreamVeraSans-Roman-65"/>
      <use x="113.623046875" xlink:href="#BitstreamVeraSans-Roman-63"/>
      <use x="168.603515625" xlink:href="#BitstreamVeraSans-Roman-75"/>
      <use x="231.982421875" xlink:href="#BitstreamVeraSans-Roman-6e"/>
      <use x="295.361328125" xlink:href="#BitstreamVeraSans-Roman-64"/>
      <use x="358.837890625" xlink:href="#BitstreamVeraSans-Roman-61"/>
      <use x="420.1171875" xlink:href="#BitstreamVeraSans-Roman-72"/>
      <use x="461.23046875" xlink:href="#BitstreamVeraSans-Roman-69"/>
      <use x="489.013671875" xlink:href="#BitstreamVeraSans-Roman-61"/>
     </g>
    </g>
    <g id="line2d_32">
     <path d="
M951.967 86.4803
L971.967 86.4803" style="fill:none;stroke:#7570b3;stroke-linecap:round;stroke-width:2.625;"/>
    </g>
    <g id="line2d_33"/>
    <g id="text_19">
     <!-- universitaria -->
     <g style="fill:#262626;" transform="translate(979.96703125 89.9803125)scale(0.1 -0.1)">
      <use xlink:href="#BitstreamVeraSans-Roman-75"/>
      <use x="63.37890625" xlink:href="#BitstreamVeraSans-Roman-6e"/>
      <use x="126.7578125" xlink:href="#BitstreamVeraSans-Roman-69"/>
      <use x="154.541015625" xlink:href="#BitstreamVeraSans-Roman-76"/>
      <use x="213.720703125" xlink:href="#BitstreamVeraSans-Roman-65"/>
      <use x="275.244140625" xlink:href="#BitstreamVeraSans-Roman-72"/>
      <use x="316.357421875" xlink:href="#BitstreamVeraSans-Roman-73"/>
      <use x="368.45703125" xlink:href="#BitstreamVeraSans-Roman-69"/>
      <use x="396.240234375" xlink:href="#BitstreamVeraSans-Roman-74"/>
      <use x="435.44921875" xlink:href="#BitstreamVeraSans-Roman-61"/>
      <use x="496.728515625" xlink:href="#BitstreamVeraSans-Roman-72"/>
      <use x="537.841796875" xlink:href="#BitstreamVeraSans-Roman-69"/>
      <use x="565.625" xlink:href="#BitstreamVeraSans-Roman-61"/>
     </g>
    </g>
   </g>
  </g>
 </g>
 <defs>
  <clipPath id="p5857def1fe">
   <rect height="370.851875" width="1054.846875" x="21.79046875" y="27.078125"/>
  </clipPath>
 </defs>
</svg>
