<?xml version="1.0" encoding="UTF-8" standalone="no"?>
<!-- Created with Inkscape (http://www.inkscape.org/) -->

<svg
   xmlns:dc="http://purl.org/dc/elements/1.1/"
   xmlns:cc="http://creativecommons.org/ns#"
   xmlns:rdf="http://www.w3.org/1999/02/22-rdf-syntax-ns#"
   xmlns:svg="http://www.w3.org/2000/svg"
   xmlns="http://www.w3.org/2000/svg"
   version="1.1"
   width="181"
   height="181"
   id="svg2">
  <defs
     id="defs4">
    <marker
       refX="0"
       refY="0"
       orient="auto"
       id="Arrow1Lend"
       style="overflow:visible">
      <path
         d="M 0,0 5,-5 -12.5,0 5,5 0,0 z"
         transform="matrix(-0.8,0,0,-0.8,-10,0)"
         id="path4014"
         style="fill-rule:evenodd;stroke:#000000;stroke-width:1pt" />
    </marker>
    <marker
       refX="0"
       refY="0"
       orient="auto"
       id="Arrow1Lstart"
       style="overflow:visible">
      <path
         d="M 0,0 5,-5 -12.5,0 5,5 0,0 z"
         transform="matrix(0.8,0,0,0.8,10,0)"
         id="path4011"
         style="fill-rule:evenodd;stroke:#000000;stroke-width:1pt" />
    </marker>
  </defs>
  <metadata
     id="metadata7">
    <rdf:RDF>
      <cc:Work
         rdf:about="">
        <dc:format>image/svg+xml</dc:format>
        <dc:type
           rdf:resource="http://purl.org/dc/dcmitype/StillImage" />
        <dc:title></dc:title>
      </cc:Work>
    </rdf:RDF>
  </metadata>
  <g
     transform="translate(-129.5,-351.86218)"
     id="layer1"
     style="display:inline">
    <path
       d="m 310,442.36218 a 90,90 0 1 1 -180,0 90,90 0 1 1 180,0 z"
       id="path3757"
       style="fill:none;stroke:#aa4400;stroke-width:1;stroke-linejoin:round;stroke-miterlimit:4;stroke-opacity:1;stroke-dasharray:none;stroke-dashoffset:0" />
    <path
       d="m 310,442.36218 c 0,0 0,0 0,0 l 0,0 c 0,11.0457 -40.29437,20 -90,20 -49.70563,0 -90,-8.9543 -90,-20"
       id="path3769"
       style="fill:none;stroke:#aa4400;stroke-width:1;stroke-linejoin:round;stroke-miterlimit:4;stroke-opacity:1;stroke-dashoffset:0" />
    <path
       d="m 130,442.36218 c 0,0 0,0 0,0 0,-11.04569 40.29437,-20 90,-20 49.70563,0 90,8.95431 90,20"
       id="path3759"
       style="fill:none;stroke:#aa4400;stroke-width:1;stroke-linejoin:round;stroke-miterlimit:4;stroke-opacity:1;stroke-dasharray:1, 3;stroke-dashoffset:0;marker-mid:none" />
    <path
       d="m 220,352.36218 c 0,0 0,0 0,0 11.04569,0 20,40.29438 20,90 l 0,0 0,0 c 0,49.70563 -8.95431,90 -20,90 0,0 0,0 0,0"
       id="path3953"
       style="fill:none;stroke:#aa4400;stroke-width:1;stroke-linejoin:round;stroke-miterlimit:4;stroke-opacity:1;stroke-dasharray:1, 3;stroke-dashoffset:0" />
    <path
       d="m 220,532.36218 c -11.04569,0 -20,-40.29437 -20,-90 0,-49.70562 8.95431,-90 20,-90"
       id="path3761"
       style="fill:none;stroke:#aa4400;stroke-width:1;stroke-linejoin:round;stroke-miterlimit:4;stroke-opacity:1;stroke-dashoffset:0" />
  </g>
  <g
     transform="translate(-129.5,-351.86218)"
     id="layer3">
    <path
       d="M 196.20144,507.51142 C 192.38078,491.11995 190,467.9922 190,442.36218 c 0,-25.61356 2.37772,-48.72807 6.19409,-65.11766"
       id="path4660"
       style="fill:none;stroke:#000000;stroke-width:2;stroke-linejoin:round;stroke-miterlimit:4;stroke-opacity:1;stroke-dasharray:none;stroke-dashoffset:0;marker-start:url(#Arrow1Lstart);marker-mid:none;marker-end:url(#Arrow1Lend);display:inline" />
  </g>
  <g
     transform="translate(-129.5,-351.86218)"
     id="layer2"
     style="display:inline">
    <path
       d="m 280.22955,447.22375 c -15.94989,3.19416 -37.06798,5.13843 -60.22955,5.13843 -35.08493,0 -65.48088,-4.4613 -80.32696,-10.97038"
       id="path7498"
       style="fill:none;stroke:#000000;stroke-width:2;stroke-linejoin:round;stroke-miterlimit:4;stroke-opacity:1;stroke-dasharray:none;stroke-dashoffset:0;marker-start:url(#Arrow1Lstart);marker-end:url(#Arrow1Lend);display:inline" />
  </g>
</svg>
