<?xml version="1.0" encoding="UTF-8" standalone="no"?>
<!-- Created with Inkscape (http://www.inkscape.org/) -->

<svg
   xmlns:dc="http://purl.org/dc/elements/1.1/"
   xmlns:cc="http://creativecommons.org/ns#"
   xmlns:rdf="http://www.w3.org/1999/02/22-rdf-syntax-ns#"
   xmlns:svg="http://www.w3.org/2000/svg"
   xmlns="http://www.w3.org/2000/svg"
   xmlns:sodipodi="http://sodipodi.sourceforge.net/DTD/sodipodi-0.dtd"
   xmlns:inkscape="http://www.inkscape.org/namespaces/inkscape"
   width="181"
   height="181"
   id="svg2"
   version="1.1"
   inkscape:version="0.48.5 r10040"
   sodipodi:docname="sphere.svg">
  <defs
     id="defs4">
    <marker
       inkscape:stockid="Arrow1Lend"
       orient="auto"
       refY="0"
       refX="0"
       id="Arrow1Lend"
       style="overflow:visible">
      <path
         id="path4014"
         d="M 0,0 5,-5 -12.5,0 5,5 0,0 z"
         style="fill-rule:evenodd;stroke:#000000;stroke-width:1pt"
         transform="matrix(-0.8,0,0,-0.8,-10,0)"
         inkscape:connector-curvature="0" />
    </marker>
    <marker
       inkscape:stockid="Arrow1Lstart"
       orient="auto"
       refY="0"
       refX="0"
       id="Arrow1Lstart"
       style="overflow:visible">
      <path
         id="path4011"
         d="M 0,0 5,-5 -12.5,0 5,5 0,0 z"
         style="fill-rule:evenodd;stroke:#000000;stroke-width:1pt"
         transform="matrix(0.8,0,0,0.8,10,0)"
         inkscape:connector-curvature="0" />
    </marker>
  </defs>
  <sodipodi:namedview
     id="base"
     pagecolor="#ffffff"
     bordercolor="#666666"
     borderopacity="1.0"
     inkscape:pageopacity="0.0"
     inkscape:pageshadow="2"
     inkscape:zoom="2.8"
     inkscape:cx="73.683315"
     inkscape:cy="84.957208"
     inkscape:document-units="px"
     inkscape:current-layer="g10632"
     showgrid="true"
     inkscape:window-width="1680"
     inkscape:window-height="988"
     inkscape:window-x="-8"
     inkscape:window-y="-8"
     inkscape:window-maximized="1"
     showguides="true"
     inkscape:guide-bbox="true"
     fit-margin-top="0"
     fit-margin-left="0"
     fit-margin-right="0"
     fit-margin-bottom="0">
    <inkscape:grid
       type="xygrid"
       id="grid3755"
       empspacing="5"
       visible="true"
       enabled="true"
       snapvisiblegridlinesonly="true"
       originx="-129.5px"
       originy="-519.5px" />
  </sodipodi:namedview>
  <metadata
     id="metadata7">
    <rdf:RDF>
      <cc:Work
         rdf:about="">
        <dc:format>image/svg+xml</dc:format>
        <dc:type
           rdf:resource="http://purl.org/dc/dcmitype/StillImage" />
        <dc:title />
      </cc:Work>
    </rdf:RDF>
  </metadata>
  <g
     inkscape:label="sphere"
     inkscape:groupmode="layer"
     id="layer1"
     style="display:inline"
     sodipodi:insensitive="true"
     transform="translate(-129.5,-351.86218)">
    <path
       sodipodi:type="arc"
       style="fill:none;stroke:#aa4400;stroke-width:1;stroke-linejoin:round;stroke-miterlimit:4;stroke-opacity:1;stroke-dasharray:none;stroke-dashoffset:0"
       id="path3757"
       sodipodi:cx="220"
       sodipodi:cy="442.36218"
       sodipodi:rx="90"
       sodipodi:ry="90"
       d="m 310,442.36218 c 0,49.70563 -40.29437,90 -90,90 -49.70563,0 -90,-40.29437 -90,-90 0,-49.70562 40.29437,-90 90,-90 49.70563,0 90,40.29438 90,90 z" />
    <path
       style="fill:none;stroke:#aa4400;stroke-width:1;stroke-linejoin:round;stroke-miterlimit:4;stroke-opacity:1;stroke-dashoffset:0"
       d="m 310,442.36218 c 0,0 0,0 0,0 l 0,0 c 0,11.0457 -40.29437,20 -90,20 -49.70563,0 -90,-8.9543 -90,-20"
       id="path3769"
       inkscape:connector-curvature="0" />
    <path
       style="fill:none;stroke:#aa4400;stroke-width:1;stroke-linejoin:round;stroke-miterlimit:4;stroke-opacity:1;stroke-dasharray:1, 3;stroke-dashoffset:0;marker-mid:none"
       d="m 130,442.36218 c 0,0 0,0 0,0 0,-11.04569 40.29437,-20 90,-20 49.70563,0 90,8.95431 90,20"
       id="path3759"
       inkscape:connector-curvature="0" />
    <path
       style="fill:none;stroke:#aa4400;stroke-width:1;stroke-linejoin:round;stroke-miterlimit:4;stroke-opacity:1;stroke-dasharray:1, 3;stroke-dashoffset:0"
       d="m 220,352.36218 c 0,0 0,0 0,0 11.04569,0 20,40.29438 20,90 l 0,0 0,0 c 0,49.70563 -8.95431,90 -20,90 0,0 0,0 0,0"
       id="path3953"
       inkscape:connector-curvature="0" />
    <path
       style="fill:none;stroke:#aa4400;stroke-width:1;stroke-linejoin:round;stroke-miterlimit:4;stroke-opacity:1;stroke-dashoffset:0"
       d="m 220,532.36218 c -11.04569,0 -20,-40.29437 -20,-90 0,-49.70562 8.95431,-90 20,-90"
       id="path3761"
       inkscape:connector-curvature="0" />
  </g>
  <g
     inkscape:groupmode="layer"
     id="layer3"
     inkscape:label="rotation_top"
     sodipodi:insensitive="true"
     transform="translate(-129.5,-351.86218)"
     style="display:none">
    <path
       style="fill:none;stroke:#000000;stroke-width:2;stroke-linejoin:round;stroke-miterlimit:4;stroke-opacity:1;stroke-dasharray:none;stroke-dashoffset:0;marker-start:url(#Arrow1Lstart);marker-mid:none;marker-end:url(#Arrow1Lend);display:inline"
       d="M 196.20144,507.51142 C 192.38078,491.11995 190,467.9922 190,442.36218 c 0,-25.61356 2.37772,-48.72807 6.19409,-65.11766"
       id="path4660"
       inkscape:connector-curvature="0" />
  </g>
  <g
     inkscape:groupmode="layer"
     id="layer2"
     inkscape:label="rotation_left"
     style="display:none"
     sodipodi:insensitive="true"
     transform="translate(-129.5,-351.86218)">
    <path
       style="fill:none;stroke:#000000;stroke-width:2;stroke-linejoin:round;stroke-miterlimit:4;stroke-opacity:1;stroke-dasharray:none;stroke-dashoffset:0;marker-start:url(#Arrow1Lstart);marker-end:url(#Arrow1Lend);display:inline"
       d="m 280.22955,447.22375 c -15.94989,3.19416 -37.06798,5.13843 -60.22955,5.13843 -35.08493,0 -65.48088,-4.4613 -80.32696,-10.97038"
       id="path7498"
       inkscape:connector-curvature="0" />
  </g>
  <g
     inkscape:groupmode="layer"
     id="layer4"
     inkscape:label="rotation_plain"
     style="display:inline"
     sodipodi:insensitive="true">
    <g
       id="g10632">
      <path
         style="font-size:medium;font-style:normal;font-variant:normal;font-weight:normal;font-stretch:normal;text-indent:0;text-align:start;text-decoration:none;line-height:normal;letter-spacing:normal;word-spacing:normal;text-transform:none;direction:ltr;block-progression:tb;writing-mode:lr-tb;text-anchor:start;baseline-shift:baseline;color:#000000;fill:#000000;fill-opacity:1;stroke:none;stroke-width:2;marker:none;visibility:visible;display:inline;overflow:visible;enable-background:accumulate;font-family:Sans;-inkscape-font-specification:Sans"
         d="m 70.5,79.5 c -17.108982,0 -31,13.891018 -31,31 0,9.146 4.050078,17.30134 10.34375,22.96875 a 1.0001,1.0001 0 1 0 1.3125,-1.5 C 45.25393,126.65374 41.5,119.05826 41.5,110.5 c 0,-16.028102 12.971898,-29 29,-29 16.028102,0 29,12.971898 29,29 0,5.92183 -1.798175,11.40983 -4.84375,16 a 1.0140613,1.0140613 0 1 0 1.6875,1.125 C 99.597047,122.72175 101.5,116.82479 101.5,110.5 c 0,-17.108982 -13.891018,-31 -31,-31 z"
         id="path8078"
         inkscape:connector-curvature="0" />
      <path
         inkscape:connector-curvature="0"
         style="fill-rule:evenodd;stroke:#000000;stroke-width:1.6pt"
         d="M 95.5,125.5 96.043877,114.19937 80.694358,138.94593 106.80063,126.04389 95.5,125.5 z"
         id="path10638" />
      <path
         inkscape:connector-curvature="0"
         style="fill-rule:evenodd;stroke:#000000;stroke-width:1.6pt"
         d="m 50.277778,131.04703 -10.668755,3.76533 28.711355,4.86395 -21.807926,-19.29803 3.765326,10.66875 z"
         id="path10640" />
    </g>
  </g>
</svg>
