<?xml version="1.0" encoding="UTF-8" standalone="no"?>
<!-- Created with Inkscape (http://www.inkscape.org/) -->

<svg
   xmlns:dc="http://purl.org/dc/elements/1.1/"
   xmlns:cc="http://creativecommons.org/ns#"
   xmlns:rdf="http://www.w3.org/1999/02/22-rdf-syntax-ns#"
   xmlns:svg="http://www.w3.org/2000/svg"
   xmlns="http://www.w3.org/2000/svg"
   version="1.1"
   width="227.83302"
   height="131.5876"
   id="svg4993">
  <defs
     id="defs4995">
    <clipPath
       id="clipPath3321">
      <path
         d="m 0,848.693 668.693,0 L 668.693,0 0,0 0,848.693 z"
         id="path3323" />
    </clipPath>
    <clipPath
       id="clipPath3275">
      <path
         d="m 401.305,453.326 c 0,-10.8 6.48,-17.159 14.338,-17.159 l 0,0 c 7.862,0 14.041,5.939 14.041,15.359 l 0,0 0,2.28 -23.458,0 c 0.119,9.119 4.019,12.24 10.497,12.24 l 0,0 c 4.801,0 8.581,-1.08 11.641,-2.821 l 0,0 0,4.981 c -3,1.319 -7.199,2.34 -11.759,2.34 l 0,0 c -9.061,0 -15.3,-5.34 -15.3,-17.22 m 5.22,-3.3 18.419,0 c -0.301,-4.619 -4.38,-9.48 -9.301,-9.48 l 0,0 c -5.039,0 -8.218,4.26 -9.118,9.48"
         id="path3277" />
    </clipPath>
    <mask
       id="mask3293">
      <g
         id="g3295">
        <g
           id="g3297">
          <g
             id="g3299">
            <g
               id="g3301">
              <path
                 d="m -32768,32767 65535,0 0,-65535 -65535,0 0,65535 z"
                 id="path3303"
                 style="fill:url(#linearGradient3287);stroke:none" />
            </g>
          </g>
        </g>
      </g>
    </mask>
    <linearGradient
       x1="0"
       y1="0"
       x2="1"
       y2="0"
       id="linearGradient3287"
       gradientUnits="userSpaceOnUse"
       gradientTransform="matrix(-1.5e-6,34.378906,34.378906,1.5e-6,415.49512,436.16699)"
       spreadMethod="pad">
      <stop
         id="stop3289"
         style="stop-color:#ffffff;stop-opacity:0"
         offset="0" />
      <stop
         id="stop3291"
         style="stop-color:#ffffff;stop-opacity:1"
         offset="1" />
    </linearGradient>
    <linearGradient
       x1="0"
       y1="0"
       x2="1"
       y2="0"
       id="linearGradient3309"
       gradientUnits="userSpaceOnUse"
       gradientTransform="matrix(-1.5e-6,34.378906,34.378906,1.5e-6,415.49512,436.16699)"
       spreadMethod="pad">
      <stop
         id="stop3311"
         style="stop-color:#ffffff;stop-opacity:1"
         offset="0" />
      <stop
         id="stop3313"
         style="stop-color:#b8babc;stop-opacity:1"
         offset="1" />
    </linearGradient>
    <clipPath
       id="clipPath3229">
      <path
         d="m 390.326,470.126 0,-18.301 c 0,-6.718 -2.521,-11.279 -7.021,-11.279 l 0,0 c -4.079,0 -7.92,1.862 -10.38,4.679 l 0,0 0,24.901 -4.979,0 0,-33.36 4.318,0 0.602,3.841 c 2.879,-2.761 6.779,-4.5 10.559,-4.5 l 0,0 c 9.061,0 11.878,6.66 11.878,15.778 l 0,0 0,18.241 -4.977,0 z"
         id="path3231" />
    </clipPath>
    <mask
       id="mask3247">
      <g
         id="g3249">
        <g
           id="g3251">
          <g
             id="g3253">
            <g
               id="g3255">
              <path
                 d="m -32768,32767 65535,0 0,-65535 -65535,0 0,65535 z"
                 id="path3257"
                 style="fill:url(#linearGradient3241);stroke:none" />
            </g>
          </g>
        </g>
      </g>
    </mask>
    <linearGradient
       x1="0"
       y1="0"
       x2="1"
       y2="0"
       id="linearGradient3241"
       gradientUnits="userSpaceOnUse"
       gradientTransform="matrix(-1.5e-6,34.019531,34.019531,1.5e-6,381.625,436.10645)"
       spreadMethod="pad">
      <stop
         id="stop3243"
         style="stop-color:#ffffff;stop-opacity:0"
         offset="0" />
      <stop
         id="stop3245"
         style="stop-color:#ffffff;stop-opacity:1"
         offset="1" />
    </linearGradient>
    <linearGradient
       x1="0"
       y1="0"
       x2="1"
       y2="0"
       id="linearGradient3263"
       gradientUnits="userSpaceOnUse"
       gradientTransform="matrix(-1.5e-6,34.019531,34.019531,1.5e-6,381.625,436.10645)"
       spreadMethod="pad">
      <stop
         id="stop3265"
         style="stop-color:#ffffff;stop-opacity:1"
         offset="0" />
      <stop
         id="stop3267"
         style="stop-color:#b8babc;stop-opacity:1"
         offset="1" />
    </linearGradient>
    <clipPath
       id="clipPath3183">
      <path
         d="m 354.146,436.766 4.981,0 0,33.359 -4.981,0 0,-33.359 z m -0.119,-7.379 -0.122,-0.06 0,-4.981 5.401,0 0,5.041 -5.279,0 z"
         id="path3185" />
    </clipPath>
    <mask
       id="mask3201">
      <g
         id="g3203">
        <g
           id="g3205">
          <g
             id="g3207">
            <g
               id="g3209">
              <path
                 d="m -32768,32767 65535,0 0,-65535 -65535,0 0,65535 z"
                 id="path3211"
                 style="fill:url(#linearGradient3195);stroke:none" />
            </g>
          </g>
        </g>
      </g>
    </mask>
    <linearGradient
       x1="0"
       y1="0"
       x2="1"
       y2="0"
       id="linearGradient3195"
       gradientUnits="userSpaceOnUse"
       gradientTransform="matrix(-2e-6,45.779297,45.779297,2e-6,356.60547,424.34668)"
       spreadMethod="pad">
      <stop
         id="stop3197"
         style="stop-color:#ffffff;stop-opacity:0"
         offset="0" />
      <stop
         id="stop3199"
         style="stop-color:#ffffff;stop-opacity:1"
         offset="1" />
    </linearGradient>
    <linearGradient
       x1="0"
       y1="0"
       x2="1"
       y2="0"
       id="linearGradient3217"
       gradientUnits="userSpaceOnUse"
       gradientTransform="matrix(-2e-6,45.779297,45.779297,2e-6,356.60547,424.34668)"
       spreadMethod="pad">
      <stop
         id="stop3219"
         style="stop-color:#ffffff;stop-opacity:1"
         offset="0" />
      <stop
         id="stop3221"
         style="stop-color:#b8babc;stop-opacity:1"
         offset="1" />
    </linearGradient>
    <clipPath
       id="clipPath3137">
      <path
         d="m 341.263,470.229 c -0.906,-0.748 -2.166,-1.217 -3.617,-1.363 l 0,0 c -3.301,-0.361 -8.099,-0.48 -11.401,-0.842 l 0,0 c -0.238,0 -0.478,0 -0.719,-0.058 l 0,0 c -1.222,0.732 -2.195,1.524 -2.919,2.263 l 0,0 -4.692,0 c 0.887,-1.367 2.219,-2.595 3.952,-3.523 l 0,0 c -1.921,-1.259 -3.299,-3 -3.299,-5.641 l 0,0 c 0,-2.34 1.918,-4.08 3.838,-5.459 l 0,0 c -2.338,-2.1 -3.418,-5.041 -3.418,-8.279 l 0,0 c 0,-4.919 3.599,-11.16 12.36,-11.16 l 0,0 c 2.638,0 4.858,0.599 6.598,1.5 l 0,0 c 0.6,-1.68 1.92,-4.259 4.499,-4.259 l 0,0 c 2.941,0 5.759,1.018 5.759,1.018 l 0,0 0,3.54 c 0,0 -4.078,-1.2 -5.459,-0.779 l 0,0 c -0.779,0.24 -1.5,1.499 -1.981,2.58 l 0,0 c 2.102,2.22 3.061,5.039 3.061,7.56 l 0,0 c 0,5.879 -3.66,11.039 -12.477,11.039 l 0,0 c -2.342,0 -4.263,-0.361 -5.882,-0.961 l 0,0 c -1.499,1.02 -2.699,1.861 -2.699,3.301 l 0,0 c 0,1.68 1.859,2.94 3.779,3.24 l 0,0 c 3.18,0.479 8.34,0.479 12.359,0.959 l 0,0 c 3.072,0.373 6.467,2.039 7.836,5.324 l 0,0 -5.478,0 z m -17.897,-22.902 c 0,3.719 2.581,7.199 7.982,7.199 l 0,0 c 5.518,0 8.037,-3.48 8.037,-7.199 l 0,0 c 0,-3.602 -2.519,-7.201 -8.037,-7.201 l 0,0 c -5.522,0 -7.982,3.599 -7.982,7.201"
         id="path3139" />
    </clipPath>
    <mask
       id="mask3155">
      <g
         id="g3157">
        <g
           id="g3159">
          <g
             id="g3161">
            <g
               id="g3163">
              <path
                 d="m -32768,32767 65535,0 0,-65535 -65535,0 0,65535 z"
                 id="path3165"
                 style="fill:url(#linearGradient3149);stroke:none" />
            </g>
          </g>
        </g>
      </g>
    </mask>
    <linearGradient
       x1="0"
       y1="0"
       x2="1"
       y2="0"
       id="linearGradient3149"
       gradientUnits="userSpaceOnUse"
       gradientTransform="matrix(-1.6e-6,36.822266,36.822266,1.6e-6,333.06006,433.40723)"
       spreadMethod="pad">
      <stop
         id="stop3151"
         style="stop-color:#ffffff;stop-opacity:0"
         offset="0" />
      <stop
         id="stop3153"
         style="stop-color:#ffffff;stop-opacity:1"
         offset="1" />
    </linearGradient>
    <linearGradient
       x1="0"
       y1="0"
       x2="1"
       y2="0"
       id="linearGradient3171"
       gradientUnits="userSpaceOnUse"
       gradientTransform="matrix(-1.6e-6,36.822266,36.822266,1.6e-6,333.06006,433.40723)"
       spreadMethod="pad">
      <stop
         id="stop3173"
         style="stop-color:#ffffff;stop-opacity:1"
         offset="0" />
      <stop
         id="stop3175"
         style="stop-color:#b8babc;stop-opacity:1"
         offset="1" />
    </linearGradient>
    <clipPath
       id="clipPath3091">
      <path
         d="m 306.328,466.105 c -2.461,2.341 -6.301,4.441 -9.96,4.441 l 0,0 c -7.079,0 -12.12,-2.76 -12.12,-8.641 l 0,0 c 0,-5.279 3.961,-10.08 12.42,-10.26 l 0,0 c 2.519,-0.058 6.54,0 9,0.122 l 0,0 c 0,-2.1 0.06,-3.721 0.06,-3.961 l 0,0 c -0.121,-4.68 -2.881,-7.081 -5.94,-7.081 l 0,0 c -4.38,0 -9.179,1.621 -12.781,3.961 l 0,0 0,-4.919 c 3.602,-2.039 7.981,-3.6 12.841,-3.6 l 0,0 c 6.059,0 10.559,4.08 10.559,11.879 l 0,0 0,13.32 c 0,2.819 1.081,4.799 2.639,5.94 l 0,0 -3.118,3.359 c -1.801,-0.959 -2.94,-2.821 -3.6,-4.56 m -9.481,-10.739 c -5.999,0.18 -7.738,3.539 -7.738,6.059 l 0,0 c 0,3.781 2.879,4.98 7.498,4.98 l 0,0 c 2.881,0 6.419,-1.799 9.18,-4.199 l 0,0 c -0.119,-2.1 -0.18,-4.56 -0.18,-6.901 l 0,0 c -0.771,-0.024 -1.798,-0.039 -2.989,-0.039 l 0,0 c -1.685,0 -3.697,0.029 -5.771,0.1"
         id="path3093" />
    </clipPath>
    <mask
       id="mask3109">
      <g
         id="g3111">
        <g
           id="g3113">
          <g
             id="g3115">
            <g
               id="g3117">
              <path
                 d="m -32768,32767 65535,0 0,-65535 -65535,0 0,65535 z"
                 id="path3119"
                 style="fill:url(#linearGradient3103);stroke:none" />
            </g>
          </g>
        </g>
      </g>
    </mask>
    <linearGradient
       x1="0"
       y1="0"
       x2="1"
       y2="0"
       id="linearGradient3103"
       gradientUnits="userSpaceOnUse"
       gradientTransform="matrix(-1.5e-6,34.498047,34.498047,1.5e-6,298.64697,436.16699)"
       spreadMethod="pad">
      <stop
         id="stop3105"
         style="stop-color:#ffffff;stop-opacity:0"
         offset="0" />
      <stop
         id="stop3107"
         style="stop-color:#ffffff;stop-opacity:1"
         offset="1" />
    </linearGradient>
    <linearGradient
       x1="0"
       y1="0"
       x2="1"
       y2="0"
       id="linearGradient3125"
       gradientUnits="userSpaceOnUse"
       gradientTransform="matrix(-1.5e-6,34.498047,34.498047,1.5e-6,298.64697,436.16699)"
       spreadMethod="pad">
      <stop
         id="stop3127"
         style="stop-color:#ffffff;stop-opacity:1"
         offset="0" />
      <stop
         id="stop3129"
         style="stop-color:#b8babc;stop-opacity:1"
         offset="1" />
    </linearGradient>
    <clipPath
       id="clipPath3045">
      <path
         d="m 273.566,470.126 0,-18.301 c 0,-6.718 -2.519,-11.279 -7.019,-11.279 l 0,0 c -3.719,0 -7.199,1.5 -9.659,3.9 l 0,0 c 0.6,2.16 0.84,4.68 0.84,7.439 l 0,0 0,18.241 -4.98,0 0,-18.301 c 0,-6.718 -2.52,-11.279 -7.02,-11.279 l 0,0 c -4.08,0 -7.92,1.862 -10.379,4.679 l 0,0 0,24.901 -4.981,0 0,-33.36 4.321,0 0.6,3.841 c 2.879,-2.761 6.779,-4.5 10.559,-4.5 l 0,0 c 4.86,0 7.919,1.919 9.72,5.099 l 0,0 c 2.879,-3.058 7.08,-5.099 11.099,-5.099 l 0,0 c 9.059,0 11.879,6.66 11.879,15.778 l 0,0 0,18.241 -4.98,0 z"
         id="path3047" />
    </clipPath>
    <mask
       id="mask3063">
      <g
         id="g3065">
        <g
           id="g3067">
          <g
             id="g3069">
            <g
               id="g3071">
              <path
                 d="m -32768,32767 65535,0 0,-65535 -65535,0 0,65535 z"
                 id="path3073"
                 style="fill:url(#linearGradient3057);stroke:none" />
            </g>
          </g>
        </g>
      </g>
    </mask>
    <linearGradient
       x1="0"
       y1="0"
       x2="1"
       y2="0"
       id="linearGradient3057"
       gradientUnits="userSpaceOnUse"
       gradientTransform="matrix(-1.5e-6,34.019531,34.019531,1.5e-6,254.45752,436.10645)"
       spreadMethod="pad">
      <stop
         id="stop3059"
         style="stop-color:#ffffff;stop-opacity:0"
         offset="0" />
      <stop
         id="stop3061"
         style="stop-color:#ffffff;stop-opacity:1"
         offset="1" />
    </linearGradient>
    <linearGradient
       x1="0"
       y1="0"
       x2="1"
       y2="0"
       id="linearGradient3079"
       gradientUnits="userSpaceOnUse"
       gradientTransform="matrix(-1.5e-6,34.019531,34.019531,1.5e-6,254.45752,436.10645)"
       spreadMethod="pad">
      <stop
         id="stop3081"
         style="stop-color:#ffffff;stop-opacity:1"
         offset="0" />
      <stop
         id="stop3083"
         style="stop-color:#b8babc;stop-opacity:1"
         offset="1" />
    </linearGradient>
    <clipPath
       id="clipPath2999">
      <path
         d="m 221.548,436.767 -4.979,0 0,33.359 4.979,0 0,-33.359 z m -5.099,-7.379 5.279,0 0,-5.041 -5.398,0 0,4.98 0.119,0.061 z"
         id="path3001" />
    </clipPath>
    <mask
       id="mask3017">
      <g
         id="g3019">
        <g
           id="g3021">
          <g
             id="g3023">
            <g
               id="g3025">
              <path
                 d="m -32768,32767 65535,0 0,-65535 -65535,0 0,65535 z"
                 id="path3027"
                 style="fill:url(#linearGradient3011);stroke:none" />
            </g>
          </g>
        </g>
      </g>
    </mask>
    <linearGradient
       x1="0"
       y1="0"
       x2="1"
       y2="0"
       id="linearGradient3011"
       gradientUnits="userSpaceOnUse"
       gradientTransform="matrix(-2e-6,45.779297,45.779297,2e-6,219.02881,424.34668)"
       spreadMethod="pad">
      <stop
         id="stop3013"
         style="stop-color:#ffffff;stop-opacity:0"
         offset="0" />
      <stop
         id="stop3015"
         style="stop-color:#ffffff;stop-opacity:1"
         offset="1" />
    </linearGradient>
    <linearGradient
       x1="0"
       y1="0"
       x2="1"
       y2="0"
       id="linearGradient3033"
       gradientUnits="userSpaceOnUse"
       gradientTransform="matrix(-2e-6,45.779297,45.779297,2e-6,219.02881,424.34668)"
       spreadMethod="pad">
      <stop
         id="stop3035"
         style="stop-color:#ffffff;stop-opacity:1"
         offset="0" />
      <stop
         id="stop3037"
         style="stop-color:#b8babc;stop-opacity:1"
         offset="1" />
    </linearGradient>
  </defs>
  <metadata
     id="metadata4998">
    <rdf:RDF>
      <cc:Work
         rdf:about="">
        <dc:format>image/svg+xml</dc:format>
        <dc:type
           rdf:resource="http://purl.org/dc/dcmitype/StillImage" />
        <dc:title></dc:title>
      </cc:Work>
    </rdf:RDF>
  </metadata>
  <g
     transform="translate(-382.29777,-204.46368)"
     id="layer1">
    <g
       transform="matrix(0.78622685,0,0,-0.78622685,242.21332,669.68351)"
       id="g2995">
      <g
         clip-path="url(#clipPath2999)"
         id="g2997">
        <g
           id="g3003">
          <g
             id="g3005" />
          <g
             mask="url(#mask3017)"
             id="g3029">
            <g
               id="g3031">
              <path
                 d="m 221.548,436.767 -4.979,0 0,33.359 4.979,0 0,-33.359 z m -5.099,-7.379 5.279,0 0,-5.041 -5.398,0 0,4.98 0.119,0.061 z"
                 id="path3039"
                 style="fill:url(#linearGradient3033);stroke:none" />
            </g>
          </g>
        </g>
      </g>
    </g>
    <g
       transform="matrix(0.78622685,0,0,-0.78622685,242.21332,669.68351)"
       id="g3041">
      <g
         clip-path="url(#clipPath3045)"
         id="g3043">
        <g
           id="g3049">
          <g
             id="g3051" />
          <g
             mask="url(#mask3063)"
             id="g3075">
            <g
               id="g3077">
              <path
                 d="m 273.566,470.126 0,-18.301 c 0,-6.718 -2.519,-11.279 -7.019,-11.279 l 0,0 c -3.719,0 -7.199,1.5 -9.659,3.9 l 0,0 c 0.6,2.16 0.84,4.68 0.84,7.439 l 0,0 0,18.241 -4.98,0 0,-18.301 c 0,-6.718 -2.52,-11.279 -7.02,-11.279 l 0,0 c -4.08,0 -7.92,1.862 -10.379,4.679 l 0,0 0,24.901 -4.981,0 0,-33.36 4.321,0 0.6,3.841 c 2.879,-2.761 6.779,-4.5 10.559,-4.5 l 0,0 c 4.86,0 7.919,1.919 9.72,5.099 l 0,0 c 2.879,-3.058 7.08,-5.099 11.099,-5.099 l 0,0 c 9.059,0 11.879,6.66 11.879,15.778 l 0,0 0,18.241 -4.98,0 z"
                 id="path3085"
                 style="fill:url(#linearGradient3079);stroke:none" />
            </g>
          </g>
        </g>
      </g>
    </g>
    <g
       transform="matrix(0.78622685,0,0,-0.78622685,242.21332,669.68351)"
       id="g3087">
      <g
         clip-path="url(#clipPath3091)"
         id="g3089">
        <g
           id="g3095">
          <g
             id="g3097" />
          <g
             mask="url(#mask3109)"
             id="g3121">
            <g
               id="g3123">
              <path
                 d="m 306.328,466.105 c -2.461,2.341 -6.301,4.441 -9.96,4.441 l 0,0 c -7.079,0 -12.12,-2.76 -12.12,-8.641 l 0,0 c 0,-5.279 3.961,-10.08 12.42,-10.26 l 0,0 c 2.519,-0.058 6.54,0 9,0.122 l 0,0 c 0,-2.1 0.06,-3.721 0.06,-3.961 l 0,0 c -0.121,-4.68 -2.881,-7.081 -5.94,-7.081 l 0,0 c -4.38,0 -9.179,1.621 -12.781,3.961 l 0,0 0,-4.919 c 3.602,-2.039 7.981,-3.6 12.841,-3.6 l 0,0 c 6.059,0 10.559,4.08 10.559,11.879 l 0,0 0,13.32 c 0,2.819 1.081,4.799 2.639,5.94 l 0,0 -3.118,3.359 c -1.801,-0.959 -2.94,-2.821 -3.6,-4.56 m -9.481,-10.739 c -5.999,0.18 -7.738,3.539 -7.738,6.059 l 0,0 c 0,3.781 2.879,4.98 7.498,4.98 l 0,0 c 2.881,0 6.419,-1.799 9.18,-4.199 l 0,0 c -0.119,-2.1 -0.18,-4.56 -0.18,-6.901 l 0,0 c -0.771,-0.024 -1.798,-0.039 -2.989,-0.039 l 0,0 c -1.685,0 -3.697,0.029 -5.771,0.1"
                 id="path3131"
                 style="fill:url(#linearGradient3125);stroke:none" />
            </g>
          </g>
        </g>
      </g>
    </g>
    <g
       transform="matrix(0.78622685,0,0,-0.78622685,242.21332,669.68351)"
       id="g3133">
      <g
         clip-path="url(#clipPath3137)"
         id="g3135">
        <g
           id="g3141">
          <g
             id="g3143" />
          <g
             mask="url(#mask3155)"
             id="g3167">
            <g
               id="g3169">
              <path
                 d="m 341.263,470.229 c -0.906,-0.748 -2.166,-1.217 -3.617,-1.363 l 0,0 c -3.301,-0.361 -8.099,-0.48 -11.401,-0.842 l 0,0 c -0.238,0 -0.478,0 -0.719,-0.058 l 0,0 c -1.222,0.732 -2.195,1.524 -2.919,2.263 l 0,0 -4.692,0 c 0.887,-1.367 2.219,-2.595 3.952,-3.523 l 0,0 c -1.921,-1.259 -3.299,-3 -3.299,-5.641 l 0,0 c 0,-2.34 1.918,-4.08 3.838,-5.459 l 0,0 c -2.338,-2.1 -3.418,-5.041 -3.418,-8.279 l 0,0 c 0,-4.919 3.599,-11.16 12.36,-11.16 l 0,0 c 2.638,0 4.858,0.599 6.598,1.5 l 0,0 c 0.6,-1.68 1.92,-4.259 4.499,-4.259 l 0,0 c 2.941,0 5.759,1.018 5.759,1.018 l 0,0 0,3.54 c 0,0 -4.078,-1.2 -5.459,-0.779 l 0,0 c -0.779,0.24 -1.5,1.499 -1.981,2.58 l 0,0 c 2.102,2.22 3.061,5.039 3.061,7.56 l 0,0 c 0,5.879 -3.66,11.039 -12.477,11.039 l 0,0 c -2.342,0 -4.263,-0.361 -5.882,-0.961 l 0,0 c -1.499,1.02 -2.699,1.861 -2.699,3.301 l 0,0 c 0,1.68 1.859,2.94 3.779,3.24 l 0,0 c 3.18,0.479 8.34,0.479 12.359,0.959 l 0,0 c 3.072,0.373 6.467,2.039 7.836,5.324 l 0,0 -5.478,0 z m -17.897,-22.902 c 0,3.719 2.581,7.199 7.982,7.199 l 0,0 c 5.518,0 8.037,-3.48 8.037,-7.199 l 0,0 c 0,-3.602 -2.519,-7.201 -8.037,-7.201 l 0,0 c -5.522,0 -7.982,3.599 -7.982,7.201"
                 id="path3177"
                 style="fill:url(#linearGradient3171);stroke:none" />
            </g>
          </g>
        </g>
      </g>
    </g>
    <g
       transform="matrix(0.78622685,0,0,-0.78622685,242.21332,669.68351)"
       id="g3179">
      <g
         clip-path="url(#clipPath3183)"
         id="g3181">
        <g
           id="g3187">
          <g
             id="g3189" />
          <g
             mask="url(#mask3201)"
             id="g3213">
            <g
               id="g3215">
              <path
                 d="m 354.146,436.766 4.981,0 0,33.359 -4.981,0 0,-33.359 z m -0.119,-7.379 -0.122,-0.06 0,-4.981 5.401,0 0,5.041 -5.279,0 z"
                 id="path3223"
                 style="fill:url(#linearGradient3217);stroke:none" />
            </g>
          </g>
        </g>
      </g>
    </g>
    <g
       transform="matrix(0.78622685,0,0,-0.78622685,242.21332,669.68351)"
       id="g3225">
      <g
         clip-path="url(#clipPath3229)"
         id="g3227">
        <g
           id="g3233">
          <g
             id="g3235" />
          <g
             mask="url(#mask3247)"
             id="g3259">
            <g
               id="g3261">
              <path
                 d="m 390.326,470.126 0,-18.301 c 0,-6.718 -2.521,-11.279 -7.021,-11.279 l 0,0 c -4.079,0 -7.92,1.862 -10.38,4.679 l 0,0 0,24.901 -4.979,0 0,-33.36 4.318,0 0.602,3.841 c 2.879,-2.761 6.779,-4.5 10.559,-4.5 l 0,0 c 9.061,0 11.878,6.66 11.878,15.778 l 0,0 0,18.241 -4.977,0 z"
                 id="path3269"
                 style="fill:url(#linearGradient3263);stroke:none" />
            </g>
          </g>
        </g>
      </g>
    </g>
    <g
       transform="matrix(0.78622685,0,0,-0.78622685,242.21332,669.68351)"
       clip-path="url(#clipPath3275)"
       id="g3273">
      <g
         id="g3279">
        <g
           id="g3281" />
        <g
           mask="url(#mask3293)"
           id="g3305">
          <g
             id="g3307">
            <path
               d="m 401.305,453.326 c 0,-10.8 6.48,-17.159 14.338,-17.159 l 0,0 c 7.862,0 14.041,5.939 14.041,15.359 l 0,0 0,2.28 -23.458,0 c 0.119,9.119 4.019,12.24 10.497,12.24 l 0,0 c 4.801,0 8.581,-1.08 11.641,-2.821 l 0,0 0,4.981 c -3,1.319 -7.199,2.34 -11.759,2.34 l 0,0 c -9.061,0 -15.3,-5.34 -15.3,-17.22 m 5.22,-3.3 18.419,0 c -0.301,-4.619 -4.38,-9.48 -9.301,-9.48 l 0,0 c -5.039,0 -8.218,4.26 -9.118,9.48"
               id="path3315"
               style="fill:url(#linearGradient3309);stroke:none" />
          </g>
        </g>
      </g>
    </g>
    <g
       transform="matrix(1.25,0,0,-1.25,141.88527,926.40746)"
       id="g3317">
      <g
         clip-path="url(#clipPath3321)"
         id="g3319">
        <g
           transform="matrix(0.62898148,0,0,0.62898148,228.29266,516.92829)"
           id="g3325">
          <path
             d="m 0,0 0,-24.9 -4.98,0 0,33.359 4.32,0 0.599,-3.84 c 2.879,2.76 6.78,4.5 10.559,4.5 4.861,0 7.92,-1.92 9.721,-5.099 2.879,3.058 7.08,5.099 11.099,5.099 9.059,0 11.879,-6.66 11.879,-15.779 l 0,-18.24 -4.98,0 0,18.3 c 0,6.719 -2.52,11.28 -7.02,11.28 -3.718,0 -7.199,-1.5 -9.658,-3.901 0.6,-2.16 0.84,-4.679 0.84,-7.439 l 0,-18.24 -4.981,0 0,18.3 c 0,6.719 -2.519,11.28 -7.019,11.28 C 6.299,4.68 2.459,2.818 0,0"
             id="path3327"
             style="fill:#373535;fill-opacity:1;fill-rule:nonzero;stroke:none" />
        </g>
        <g
           transform="matrix(0.62898148,0,0,0.62898148,272.59654,506.24792)"
           id="g3329">
          <path
             d="m 0,0 c -0.119,2.1 -0.18,4.561 -0.18,6.9 -1.859,0.061 -5.218,0.061 -8.759,-0.06 -6,-0.18 -7.739,-3.539 -7.739,-6.059 0,-3.781 2.879,-4.98 7.498,-4.98 2.881,0 6.42,1.799 9.18,4.199 M 7.26,-5.1 4.141,-8.459 C 2.34,-7.5 1.201,-5.639 0.541,-3.898 -1.92,-6.24 -5.76,-8.34 -9.418,-8.34 c -7.08,0 -12.121,2.76 -12.121,8.641 0,5.279 3.961,10.08 12.42,10.26 2.519,0.058 6.541,0 9,-0.122 0,2.1 0.06,3.721 0.06,3.961 -0.121,4.68 -2.88,7.08 -5.939,7.08 -4.381,0 -9.18,-1.621 -12.781,-3.96 l 0,4.919 c 3.601,2.04 7.98,3.6 12.84,3.6 6.06,0 10.56,-4.08 10.56,-11.879 l 0,-13.32 c 0,-2.819 1.08,-4.799 2.639,-5.94"
             id="path3331"
             style="fill:#373535;fill-opacity:1;fill-rule:nonzero;stroke:none" />
        </g>
        <g
           transform="matrix(0.62898148,0,0,0.62898148,293.72976,515.60647)"
           id="g3333">
          <path
             d="m 0,0 c 0,3.602 -2.52,7.201 -8.039,7.201 -5.521,0 -7.98,-3.599 -7.98,-7.201 0,-3.719 2.58,-7.199 7.98,-7.199 C -2.52,-7.199 0,-3.719 0,0 m 1.877,-22.902 c -0.906,0.748 -2.166,1.216 -3.617,1.363 -3.301,0.361 -8.099,0.48 -11.4,0.842 -0.238,0 -0.479,0 -0.719,0.058 -1.223,-0.732 -2.195,-1.523 -2.92,-2.263 l -4.691,0 c 0.887,1.367 2.219,2.595 3.951,3.523 -1.92,1.26 -3.299,3 -3.299,5.641 0,2.34 1.918,4.08 3.838,5.459 -2.338,2.099 -3.418,5.041 -3.418,8.279 0,4.92 3.6,11.16 12.359,11.16 2.639,0 4.859,-0.599 6.6,-1.5 0.599,1.68 1.919,4.259 4.498,4.259 C 6,13.919 8.818,12.9 8.818,12.9 l 0,-3.539 c 0,0 -4.078,1.2 -5.459,0.78 C 2.58,9.9 1.859,8.641 1.379,7.561 3.48,5.34 4.439,2.521 4.439,0 c 0,-5.879 -3.66,-11.039 -12.478,-11.039 -2.341,0 -4.261,0.361 -5.88,0.961 -1.5,-1.02 -2.7,-1.861 -2.7,-3.301 0,-1.68 1.86,-2.939 3.78,-3.24 3.179,-0.479 8.339,-0.479 12.359,-0.959 3.072,-0.373 6.466,-2.039 7.835,-5.324 l -5.478,0 z"
             id="path3335"
             style="fill:#373535;fill-opacity:1;fill-rule:nonzero;stroke:none" />
        </g>
        <path
           d="m 303.01371,522.24871 3.13232,0 0,-20.98219 -3.13232,0 0,20.98219 z m -0.15158,4.67899 0,3.13295 3.39712,0 0,-3.17069 -3.32101,0 -0.0761,0.0378 z"
           id="path3337"
           style="fill:#373535;fill-opacity:1;fill-rule:nonzero;stroke:none" />
        <g
           transform="matrix(0.62898148,0,0,0.62898148,314.78837,519.83367)"
           id="g3339">
          <path
             d="m 0,0 c 2.879,2.76 6.779,4.5 10.559,4.5 9.06,0 11.878,-6.66 11.878,-15.779 l 0,-18.241 -4.978,0 0,18.301 c 0,6.719 -2.52,11.28 -7.02,11.28 -4.08,0 -7.919,-1.862 -10.38,-4.68 l 0,-24.901 -4.979,0 0,33.36 4.318,0 L 0,0 z"
             id="path3341"
             style="fill:#373535;fill-opacity:1;fill-rule:nonzero;stroke:none" />
        </g>
        <g
           transform="matrix(0.62898148,0,0,0.62898148,335.95876,513.90873)"
           id="g3343">
          <path
             d="M 0,0 18.42,0 C 18.119,4.619 14.039,9.48 9.119,9.48 4.08,9.48 0.9,5.221 0,0 m -0.299,-3.779 c 0.119,-9.119 4.02,-12.241 10.498,-12.241 4.801,0 8.58,1.081 11.641,2.821 l 0,-4.981 c -3,-1.318 -7.199,-2.34 -11.76,-2.34 -9.06,0 -15.299,5.34 -15.299,17.221 0,10.799 6.479,17.158 14.338,17.158 7.861,0 14.041,-5.939 14.041,-15.359 l 0,-2.279 -23.459,0 z"
             id="path3345"
             style="fill:#373535;fill-opacity:1;fill-rule:nonzero;stroke:none" />
        </g>
        <path
           d="m 216.48096,529.83423 3.2078,0 0,-28.44003 -3.2078,0 0,28.44003 z"
           id="path3347"
           style="fill:#373535;fill-opacity:1;fill-rule:nonzero;stroke:none" />
        <g
           transform="matrix(0.62898148,0,0,0.62898148,304.56007,514.29813)"
           id="g3349">
          <path
             d="m 0,0 c -11.621,0 -20.449,13.906 -20.818,14.498 l -0.994,1.589 0.994,1.59 c 0.369,0.592 9.197,14.498 20.818,14.498 11.623,0 20.449,-13.906 20.82,-14.498 l 0.994,-1.59 -0.994,-1.589 C 20.449,13.906 11.623,0 0,0"
             id="path3351"
             style="fill:#ffffff;fill-opacity:1;fill-rule:evenodd;stroke:none" />
        </g>
        <g
           transform="matrix(0.62898148,0,0,0.62898148,316.05495,524.41681)"
           id="g3353">
          <path
             d="M 0,0 C 0,0 -8.182,-13.087 -18.275,-13.087 -28.367,-13.087 -36.551,0 -36.551,0 c 0,0 8.184,13.088 18.276,13.088 C -8.182,13.088 0,0 0,0"
             id="path3355"
             style="fill:#317abe;fill-opacity:1;fill-rule:evenodd;stroke:none" />
        </g>
        <g
           transform="matrix(0.62898148,0,0,0.62898148,304.56007,517.50323)"
           id="g3357">
          <path
             d="m 0,0 c -5.984,0 -10.855,4.869 -10.855,10.855 0,5.986 4.871,10.855 10.855,10.855 5.986,0 10.855,-4.869 10.855,-10.855 C 10.855,4.869 5.986,0 0,0"
             id="path3359"
             style="fill:#ffffff;fill-opacity:1;fill-rule:nonzero;stroke:none" />
        </g>
        <g
           transform="matrix(0.62898148,0,0,0.62898148,309.95798,524.33082)"
           id="g3361">
          <path
             d="m 0,0 c 0,-4.74 -3.842,-8.582 -8.582,-8.582 -4.738,0 -8.582,3.842 -8.582,8.582 0,4.74 3.844,8.582 8.582,8.582 C -3.842,8.582 0,4.74 0,0"
             id="path3363"
             style="fill:#373535;fill-opacity:1;fill-rule:nonzero;stroke:none" />
        </g>
        <g
           transform="matrix(0.62898148,0,0,0.62898148,309.71475,526.98431)"
           id="g3365">
          <path
             d="m 0,0 c 0,-1.766 -1.43,-3.197 -3.193,-3.197 -1.766,0 -3.198,1.431 -3.198,3.197 0,1.764 1.432,3.195 3.198,3.195 C -1.43,3.195 0,1.764 0,0"
             id="path3367"
             style="fill:#ffffff;fill-opacity:1;fill-rule:nonzero;stroke:none" />
        </g>
        <g
           transform="matrix(0.62898148,0,0,0.62898148,279.78806,501.14481)"
           id="g3369">
          <path
             d="M 0,0 30.14,0"
             id="path3371"
             style="fill:none;stroke:#ffffff;stroke-width:0.25;stroke-linecap:butt;stroke-linejoin:miter;stroke-miterlimit:10;stroke-opacity:1;stroke-dasharray:none" />
        </g>
        <g
           transform="matrix(0.62898148,0,0,0.62898148,281.58412,547.1867)"
           id="g3571">
          <path
             d="m 0,0 c -17.654,1.15 -35.688,-1.208 -52.822,-5.438 -8.498,-2.098 -16.862,-4.724 -25.047,-7.83 -6.783,-2.573 -13.373,-6.525 -20.783,-6.642 -0.448,-0.007 -4.547,-0.072 -4.131,1.092 0.359,1.01 7.521,4.797 9.668,5.996 7.502,4.189 15.271,7.872 23.261,11.009 16.106,6.322 33.237,10.719 50.545,11.65 17.461,0.939 34.685,-0.374 51.699,-4.612 16.692,-4.161 32.727,-10.884 47.658,-19.466 7.44,-4.277 14.623,-9.096 21.321,-14.484 1.589,-1.28 3.146,-2.604 4.673,-3.962 0.831,-0.737 3.37,-2.292 3.637,-3.396 0.467,-1.931 -3.138,0.749 -3.228,0.808 -2.041,1.331 -4.114,2.615 -6.209,3.857 -14.953,8.857 -30.994,16.117 -47.481,21.523 -8.76,2.874 -17.683,5.261 -26.746,6.949 C 17.57,-1.375 8.619,0.175 0,0 -2.893,0.188 3.758,0.076 0,0"
             id="path3573"
             style="fill:#b4d4ec;fill-opacity:1;fill-rule:evenodd;stroke:none" />
        </g>
      </g>
    </g>
  </g>
</svg>
